<?xml version="1.0" encoding="utf-8"?>
<!-- Generator: Adobe Illustrator 23.1.0, SVG Export Plug-In . SVG Version: 6.00 Build 0)  -->
<svg version="1.1" id="Layer_1" xmlns="http://www.w3.org/2000/svg" xmlns:xlink="http://www.w3.org/1999/xlink" x="0px" y="0px"
	 viewBox="0 0 810 480" style="enable-background:new 0 0 810 480;" xml:space="preserve">
<style type="text/css">
	.st0{fill:#E0E0E0;}
	.st1{fill:#FAFAFA;}
	.st2{fill:#FFFFFF;}
	.st3{fill:#EBEBEB;}
	.st4{fill:#F5F5F5;}
	.st5{fill:#455A64;}
	.st6{opacity:0.3;}
	.st7{fill:#263238;}
	.st8{fill:#7500D4;}
	.st9{fill:none;}
	.st10{opacity:0.6;}
	.st11{fill:#BA7F72;}
	.st12{fill:#8B5D54;}
	.st13{fill:#EB996E;}
</style>
<g>
	<g>
		<g id="freepik--background-complete--inject-36">
			<rect x="572.88" y="39.91" class="st0" width="61.12" height="63.85"/>
			<rect x="568.74" y="39.91" class="st1" width="61.12" height="63.85"/>
			<path class="st0" d="M629.88,103.78h-61.14V39.89h61.15L629.88,103.78L629.88,103.78z M568.73,103.78h61.08V39.94h-61.05
				L568.73,103.78z"/>
			<rect x="576.96" y="48.49" class="st2" width="44.69" height="46.68"/>
			<path class="st0" d="M576.96,95.49c-0.31,0.47-0.69,0.91-1.1,1.3c-0.72,0.75-1.72,1.78-2.84,2.88c-1.13,1.1-2.15,2.1-2.91,2.78
				c-0.39,0.41-0.82,0.77-1.29,1.07c0.31-0.46,0.68-0.9,1.1-1.28c0.72-0.75,1.72-1.78,2.85-2.89c1.13-1.11,2.15-2.1,2.91-2.78
				C576.06,96.16,576.49,95.79,576.96,95.49z"/>
			<path class="st0" d="M621.64,95.37c0.48,0.31,0.9,0.68,1.29,1.1c0.75,0.72,1.77,1.72,2.88,2.84c1.11,1.13,2.09,2.16,2.77,2.93
				c0.42,0.38,0.77,0.82,1.07,1.3c-0.46-0.32-0.89-0.69-1.27-1.1c-0.76-0.72-1.78-1.72-2.89-2.86c-1.11-1.13-2.09-2.16-2.77-2.92
				C622.32,96.27,621.96,95.84,621.64,95.37z"/>
			<path class="st0" d="M621.53,48.59c0.32-0.47,0.69-0.9,1.1-1.28c0.72-0.75,1.72-1.78,2.84-2.89c1.13-1.11,2.15-2.1,2.91-2.78
				c0.39-0.4,0.82-0.76,1.28-1.07c-0.31,0.48-0.67,0.91-1.1,1.28c-0.72,0.75-1.72,1.78-2.84,2.89c-1.13,1.11-2.17,2.1-2.92,2.78
				C622.43,47.94,621.99,48.29,621.53,48.59z"/>
			<path class="st0" d="M576.87,48.73c-0.48-0.31-0.91-0.67-1.31-1.07c-0.76-0.72-1.78-1.72-2.88-2.85
				c-1.1-1.13-2.09-2.16-2.77-2.92c-0.41-0.39-0.76-0.83-1.07-1.3c0.47,0.31,0.9,0.67,1.28,1.1c0.75,0.72,1.77,1.72,2.88,2.85
				c1.11,1.13,2.1,2.18,2.77,2.93C576.18,47.85,576.55,48.27,576.87,48.73z"/>
			<path class="st0" d="M621.53,95.18c0,0,0-0.08,0-0.23s0-0.37,0-0.65c0-0.59,0-1.43,0-2.51c0-2.21,0-5.43-0.04-9.52
				c0-8.18-0.04-19.82-0.08-33.77l0.17,0.18h-44.56l0,0l0.2-0.2c0,17.14,0,33.16,0,46.68l-0.25-0.15l32.27,0.1h9.06h2.4h0.65
				c0.07-0.01,0.14-0.01,0.21,0h-0.8h-2.37h-9.02L577,95.2h-0.17v-0.17c0-13.51,0-29.55,0-46.68v-0.2h0.2h44.56h0.18v0.18
				c0,13.99-0.07,25.67-0.1,33.88c0,4.07,0,7.27,0,9.46c0,1.08,0,1.92,0,2.49c0,0.27,0,0.48,0,0.63
				C621.66,94.93,621.6,95.06,621.53,95.18z"/>
			<rect x="591.84" y="64.36" class="st3" width="14.9" height="14.93"/>
			<rect x="242.62" y="53.78" class="st0" width="68.54" height="71.61"/>
			<rect x="237.98" y="53.78" class="st1" width="68.54" height="71.61"/>
			<path class="st0" d="M306.54,125.4h-68.56V53.75h68.56V125.4z M237.98,125.4h68.5V53.8h-68.47L237.98,125.4z"/>
			<rect x="247.19" y="63.4" class="st2" width="50.11" height="52.34"/>
			<path class="st0" d="M247.19,116.1c-0.35,0.52-0.77,1.01-1.24,1.44c-0.8,0.85-1.93,2-3.18,3.24c-1.26,1.24-2.42,2.35-3.27,3.14
				c-0.43,0.46-0.91,0.86-1.44,1.21c0.35-0.52,0.76-1,1.22-1.43c0.81-0.84,1.94-2,3.2-3.24c1.27-1.24,2.43-2.35,3.28-3.14
				C246.18,116.84,246.66,116.43,247.19,116.1z"/>
			<path class="st0" d="M297.31,115.96c0.52,0.36,1.01,0.78,1.44,1.24c0.84,0.8,1.98,1.94,3.23,3.19c1.24,1.27,2.35,2.42,3.14,3.28
				c0.45,0.44,0.86,0.92,1.2,1.45c-0.53-0.35-1.01-0.75-1.44-1.23c-0.84-0.81-1.99-1.94-3.23-3.21c-1.24-1.27-2.35-2.43-3.14-3.29
				C298.04,116.99,297.65,116.5,297.31,115.96z"/>
			<path class="st0" d="M297.17,63.54c0.35-0.52,0.77-1.01,1.23-1.44c0.81-0.84,1.93-1.99,3.18-3.23c1.26-1.24,2.42-2.35,3.28-3.14
				c0.43-0.45,0.92-0.85,1.44-1.21c-0.35,0.52-0.76,1.01-1.23,1.44c-0.8,0.84-1.93,2-3.2,3.24c-1.27,1.24-2.42,2.4-3.28,3.14
				C298.18,62.8,297.7,63.21,297.17,63.54z"/>
			<path class="st0" d="M247.03,63.67c-0.52-0.36-1.01-0.76-1.44-1.23c-0.84-0.81-1.99-1.94-3.23-3.19
				c-1.24-1.27-2.35-2.42-3.14-3.28c-0.46-0.44-0.87-0.92-1.2-1.46c0.52,0.36,0.99,0.77,1.43,1.23c0.84,0.8,1.99,1.94,3.24,3.21
				c1.25,1.27,2.35,2.42,3.14,3.29C246.28,62.66,246.69,63.14,247.03,63.67z"/>
			<path class="st0" d="M297.17,115.75c-0.01-0.08-0.01-0.18,0-0.26c0-0.18,0-0.42,0-0.72c0-0.66,0-1.61,0-2.78
				c0-2.48,0-6.08,0-10.66c-0.12-9.21-0.12-22.28-0.19-37.87l0.19,0.2h-49.98l0,0l0.22-0.22c0,19.22,0,37.19,0,52.36l-0.19-0.2
				l36.18,0.1l10.19,0.04h2.7H297h-0.66h-2.65l-10.12,0.05l-36.31,0.1h-0.23v-0.19c0-15.1,0-33.07-0.05-52.24v-0.22h0.22h49.98h0.19
				v0.22c0,15.7-0.07,28.78-0.1,38c0,4.55,0,8.15,0,10.62c0,1.21,0,2.15,0,2.78c0,0.31,0,0.54,0,0.72
				C297.24,115.64,297.21,115.7,297.17,115.75z"/>
			<rect x="263.9" y="81.19" class="st3" width="16.72" height="16.75"/>
			<path class="st0" d="M259.08,358.11c-4.44-2.78-9.46-4.51-14.66-5.06c-2.4-0.24-5.01-0.18-6.94,1.28
				c-0.45,0.26-0.73,0.75-0.72,1.27c0.12,0.36,0.35,0.67,0.67,0.86C243.4,361.03,252.43,361.6,259.08,358.11"/>
			<path class="st0" d="M258.67,357.7c-3.39-2.49-6.57-5.3-9.47-8.35c-2.91-3.08-4.97-6.88-5.94-11.01c-0.4-1.24-0.23-2.6,0.46-3.71
				c7.56,5.9,13.48,13.54,14.95,23.03"/>
			<path class="st0" d="M258.96,358.05c-0.7-4.13-0.64-8.35,0.18-12.46c0.84-4.14,3.21-7.81,6.63-10.28
				c1.31,3.05,0.75,6.57-0.18,9.77c-1.42,4.95-3.64,9.63-6.57,13.86"/>
			<path class="st0" d="M266.37,371.34c-4.49,0.55-8.4,2.92-11.76,5.97c-3.38,3.07-5.72,7.11-6.72,11.57
				c4.4-0.27,8.14-3.38,10.86-6.88c2.71-3.5,4.63-7.32,7.57-10.58"/>
			<path class="st0" d="M267.98,373.47c-3.59-9.15-2.34-19.48,3.35-27.49C273.89,355.1,272.95,365.41,267.98,373.47"/>
			<path class="st0" d="M277.75,385.14c-8.39-0.51-16.28,4.04-20.05,11.57c-0.25,0.51-0.48,1.13-0.14,1.58
				c0.35,0.35,0.85,0.49,1.34,0.39c3.94-0.25,7.42-2.64,10.34-5.35c2.92-2.71,5.4-5.85,8.61-8.2"/>
			<path class="st0" d="M277.44,384.51c-2.11-6.79-2.23-14.05-0.37-20.91c0.74-2.69,1.97-5.52,4.45-6.78
				c0.2-0.13,0.45-0.18,0.69-0.12c0.2,0.12,0.35,0.28,0.43,0.51c0.84,1.88,1.2,3.94,1.05,5.99c-0.14,2.05-0.44,4.08-0.93,6.07
				c-0.78,3.71-1.2,7.7-3.23,10.9c-0.48,0.77-0.91,1.57-1.29,2.4c-0.38,0.82-0.39,1.1-0.74,1.75"/>
			<path class="st0" d="M303.34,388.41c-1.91-7.31,0.12-16.18,4.71-22.16c0.34-0.44,0.79-0.93,1.34-0.86
				c0.84,0.07,1.06,1.21,1.03,2.05C310.07,374.96,307.62,382.22,303.34,388.41"/>
			<path class="st0" d="M305.67,389.97c8.87,2.31,19.03,0.07,26.4-5.37c-4.42-2.22-9.47-2.84-14.3-1.77
				C313.01,383.93,308.65,386.07,305.67,389.97"/>
			<path class="st0" d="M307.64,385.11c4.97-8.12,14.49-13.41,23.97-13.92c-1.1,3.87-4.26,6.87-7.84,8.69s-7.57,2.6-11.51,3.37
				c-1.53,0.29-3.63,0.62-4.63,1.86"/>
			<path class="st0" d="M303.83,361.48c1.34-4.64,2.7-9.29,3.07-14.06c0.37-4.79-0.31-9.79-2.77-13.92
				c-4.63,8.99-5.1,19.5-0.41,28.46"/>
			<path class="st0" d="M319.44,353.57c5.42-9.87,16.54-17.76,27.65-18.87c-4.31,10.77-16.09,19.1-27.69,18.87"/>
			<path class="st0" d="M316.03,355.51c8.09,1.23,14.98,6.4,22.53,9.54c1.59,0.75,3.35,1.07,5.09,0.93c2.2-0.03,3.97-1.83,3.94-4.03
				c-0.01-1.17-0.54-2.28-1.44-3.04c-1.07-0.99-2.34-1.75-3.7-2.25c-8.23-3.44-17.06-3.52-25.73-1.44"/>
			<path class="st0" d="M311.35,361.2c1.85,0.52,2.45,1.47,3.91,2.71c4.94,4.21,10.79,7.22,17.08,8.8c0.66,0.16,1.51,0.22,1.85-0.37
				c0.35-0.59-0.07-1.15-0.44-1.6c-2.75-3.23-6.31-5.66-10.31-7.02c-3.94-1.47-7.42-3.25-12.05-2.87"/>
			<path class="st0" d="M306.07,326.86c6.71,6.2,15.71,9.27,24.8,8.46c0.42,0,0.81-0.14,1.13-0.41c0.62-0.67-0.12-1.72-0.85-2.3
				C323.85,326.91,315.02,324.55,306.07,326.86"/>
			<path class="st0" d="M312.33,324.57c8.9-6.57,20.4-8.47,30.94-5.11c-3.89,3.84-9.27,5.91-14.74,6.5
				c-5.44,0.5-10.92,0.04-16.2-1.37"/>
			<path class="st0" d="M309.84,308.79c-0.72-7.3-0.25-13.06-0.75-20.38c0-0.59-0.17-1.3-0.72-1.49c-0.76-0.29-1.4,0.64-1.65,1.42
				c-2.15,6.88-1,14.37,3.11,20.29"/>
			<path class="st0" d="M309.32,309.59c4.93-3.05,8.63-7.05,12.05-11.74c2.38-3.27,4.38-7.17,3.85-11.14
				c-3.39,0.1-6.57,1.68-8.7,4.32c-2.07,2.64-3.58,5.68-4.43,8.93c-0.93,3.21-1.64,6.5-2.77,9.66"/>
			<path class="st0" d="M321.16,306.29c10.84-4.02,20.88-9.96,29.65-17.52c-3.54-1.43-7.6-0.58-11.12,0.85
				c-8.1,3.28-14.71,8.8-18.68,16.59"/>
			<path class="st0" d="M312.64,313.58c5.48,0.6,11.03,0.99,16.47,0.08c5.44-0.91,10.38-3.02,15.37-5.12
				c0.43-0.12,0.81-0.4,1.05-0.79c0.16-0.48,0.01-0.99-0.37-1.31c-0.39-0.31-0.83-0.52-1.31-0.62c-5.42-1.51-11.28-0.81-16.61,1
				C322.15,308.55,317.26,310.83,312.64,313.58"/>
			<path class="st0" d="M281.38,327.13c-3.7-7.56-3.49-16.38-0.26-24.14c2.27,3.47,2.55,7.89,2.13,12.01
				c-0.42,4.12-1.67,8.35-1.75,12.53"/>
			<path class="st0" d="M266.49,319.57c-9.46-0.13-18.55,3.74-25.01,10.66c4.63,0.74,9.44-0.48,13.68-2.54
				c4.24-2.07,7.99-4.98,11.73-7.87"/>
			<path class="st0" d="M256.43,316.21c-4.57-0.37-8.96-0.93-13.34,0.42c-4.38,1.34-8.34,4.4-10.19,8.63
				c4.31,0.36,8.63-0.46,12.51-2.37c3.86-1.89,7.54-4.13,11-6.69"/>
			<path class="st0" d="M271.28,316.36c-4.1-2.69-8.34-5.44-13.1-6.55c-4.76-1.11-10.32-0.31-13.65,3.31
				c3.86,2.27,8.56,2.54,13.04,2.54c4.48,0,9.99-0.05,14.21,1.45"/>
			<path class="st0" d="M271.3,316.57c-7.03-6.9-9.68-19.31-6.86-28.78C270,296.3,272.42,306.48,271.3,316.57"/>
			<path class="st0" d="M290.57,297.01c1.32-3.08,2.26-6.32,3.45-9.46c1.08-3.18,2.74-6.14,4.89-8.7c2.2-2.58,5.32-4.21,8.69-4.51
				c-2.19,9.62-8.31,17.87-16.87,22.74"/>
			<path class="st0" d="M287.11,301.13c-2.2-3.02-4.72-7.12-7.7-9.38c-2.97-2.26-6.84-3.62-10.45-2.78
				C272.76,295.67,279.49,300.17,287.11,301.13"/>
			<path class="st0" d="M287.8,297.26c-1.57-3.6-2.73-7.38-3.46-11.24c-0.58-3.88-0.22-8.03,1.76-11.42
				c3.85,7.3,5.09,15.12,1.85,22.74"/>
			<path class="st0" d="M290.63,274.6c2.19-7.24,8.8-12.56,15.93-15.01c0.88-0.36,1.83-0.51,2.77-0.43
				c0.97,0.11,1.78,0.79,2.06,1.72c0.26,1.23-0.75,2.33-1.7,3.14c-5.58,4.78-12.08,8.36-19.08,10.56"/>
			<path class="st0" d="M290.71,268.68c0.28-4.64,0.57-9.39,2.07-13.82c1.51-4.42,4.44-8.56,8.68-10.49
				c0.72,4.71-1.36,9.39-3.85,13.44c-2.51,4.05-5.51,7.88-7.03,12.4"/>
			<path class="st0" d="M290.57,271.89c-1.8-5.27-1.98-11.97-5.14-16.56c-2.21-3.21-5.73-5.39-7.63-8.79
				c-1.15,3.28-0.99,6.87,0.45,10.02c1.44,3.11,3.41,5.93,5.81,8.35c2.34,2.49,4.33,4.38,6.49,7.01"/>
			<path class="st0" d="M290.63,427.16c-0.14,0-0.26-35.17-0.27-78.54c-0.01-43.37,0.1-78.56,0.23-78.56
				c0.13,0,0.27,35.16,0.28,78.56C290.88,392.01,290.77,427.16,290.63,427.16z"/>
			<path class="st0" d="M321.3,321.8c-0.42,0.21-0.86,0.38-1.31,0.51l-3.63,1.23c-3.06,1.05-7.27,2.57-11.84,4.44
				c-4.57,1.87-8.78,3.52-11.16,5.66c-0.97,0.81-1.75,1.83-2.25,2.99c-0.35,0.83-0.42,1.32-0.46,1.31c-0.02-0.12-0.02-0.25,0-0.37
				c0.05-0.35,0.14-0.69,0.26-1.02c0.46-1.23,1.21-2.33,2.2-3.19c1.46-1.24,3.11-2.26,4.86-3.03c1.94-0.93,4.1-1.86,6.39-2.78
				c4.57-1.86,8.82-3.34,11.92-4.31c1.55-0.48,2.77-0.83,3.7-1.07C320.4,322.01,320.85,321.89,321.3,321.8z"/>
			<path class="st0" d="M331.35,297.06c0,0-0.12,0.15-0.36,0.4l-1.13,1.06l-4.21,3.83l-13.99,12.48c-5.47,4.87-10.19,9.53-13.45,13
				c-1.64,1.75-2.92,3.21-3.81,4.22c-0.42,0.46-0.75,0.85-1.02,1.16c-0.27,0.31-0.36,0.4-0.38,0.38c0.08-0.16,0.19-0.31,0.29-0.44
				c0.21-0.28,0.53-0.7,0.93-1.23c0.84-1.06,2.09-2.54,3.7-4.32c4.23-4.63,8.69-9.02,13.38-13.18c5.48-4.86,10.47-9.23,14.1-12.38
				l4.31-3.71l1.19-0.99C331.04,297.22,331.19,297.14,331.35,297.06z"/>
			<path class="st0" d="M305.78,319.79c-0.15-0.07,0.99-2.71,2.13-6.05c1.14-3.33,1.68-6.15,1.85-6.14
				c-0.12,2.16-0.58,4.28-1.36,6.3c-0.49,1.45-1.05,2.86-1.7,4.24C306.47,318.72,306.15,319.28,305.78,319.79z"/>
			<path class="st0" d="M290.67,341.06c-0.32-0.29-0.6-0.61-0.84-0.98l-2.15-2.78c-1.85-2.34-4.31-5.57-7.12-9.13
				c-2.81-3.55-5.38-6.72-7.26-9.03l-2.17-2.71c-0.28-0.33-0.54-0.67-0.76-1.04c0.35,0.28,0.66,0.59,0.93,0.93
				c0.55,0.61,1.36,1.51,2.32,2.63c1.94,2.25,4.57,5.39,7.42,8.94c2.84,3.54,5.27,6.83,7.01,9.23c0.87,1.21,1.57,2.18,2.03,2.87
				C290.3,340.32,290.5,340.69,290.67,341.06z"/>
			<path class="st0" d="M283.95,332.42c-1.34-1.51-2.29-3.33-2.77-5.29c-0.53-1.72-0.74-3.52-0.64-5.33h0.22
				c-0.1,0.41-0.18,0.62-0.21,0.62c-0.04,0-0.04-0.23,0-0.65h0.22c0.12,1.76,0.43,3.5,0.93,5.19
				C282.52,330.13,284.09,332.33,283.95,332.42z"/>
			<path class="st0" d="M275.26,321.48c-0.6-0.46-1.27-0.85-1.97-1.15c-1.77-0.52-3.63-0.67-5.47-0.44
				c-1.85,0.16-3.69,0.47-5.49,0.93c-0.74,0.24-1.51,0.43-2.27,0.55c0.67-0.42,1.4-0.73,2.17-0.93c1.81-0.55,3.67-0.91,5.56-1.05
				c1.9-0.25,3.84-0.04,5.63,0.61C274.19,320.26,274.84,320.79,275.26,321.48z"/>
			<path class="st0" d="M273.21,318.82c0,0.08-1.15-0.45-3.01-1.1c-4.88-1.68-10.11-2.07-15.19-1.16c-1.94,0.34-3.13,0.72-3.15,0.63
				c0.25-0.16,0.51-0.28,0.8-0.34c0.75-0.26,1.51-0.48,2.28-0.64c5.13-1.13,10.47-0.72,15.38,1.17c0.74,0.28,1.45,0.61,2.15,0.99
				C272.73,318.48,272.99,318.63,273.21,318.82z"/>
			<path class="st0" d="M290.57,307.63c-0.89-2.5-1.62-5.05-2.2-7.64c-0.74-2.56-1.3-5.15-1.7-7.77c0.9,2.49,1.63,5.05,2.2,7.64
				C289.61,302.41,290.18,305,290.57,307.63z"/>
			<path class="st0" d="M290.74,307.63c-0.16,0.05-0.79-2.24-2.44-4.58c-1.03-1.39-2.23-2.64-3.59-3.71
				c0.51,0.12,0.99,0.36,1.38,0.72c1.02,0.74,1.91,1.64,2.62,2.68C289.82,304.16,290.51,305.85,290.74,307.63z"/>
			<path class="st0" d="M290.63,408.4c-0.05,0-0.16-0.84-0.55-2.34c-0.58-2.1-1.37-4.15-2.35-6.09
				c-2.42-4.96-6.83-11.27-12.44-17.56c-2.77-3.19-5.47-6.18-7.75-9.06c-2.06-2.52-3.92-5.2-5.56-8.03
				c-1.09-1.9-2.02-3.89-2.77-5.95c-0.25-0.74-0.44-1.31-0.55-1.7c-0.07-0.2-0.12-0.4-0.15-0.6c0,0,0.31,0.81,0.93,2.24
				c0.81,2.03,1.76,4,2.86,5.89c1.67,2.77,3.52,5.41,5.56,7.91c2.29,2.84,5,5.82,7.78,9.01c5.68,6.29,10.06,12.65,12.42,17.7
				c0.96,1.99,1.7,4.08,2.21,6.23c0.14,0.59,0.25,1.17,0.31,1.77C290.62,408.01,290.63,408.21,290.63,408.4z"/>
			<path class="st0" d="M318.37,377.04c-0.46,0.3-0.95,0.58-1.44,0.82c-1.31,0.75-2.58,1.58-3.77,2.49
				c-1.76,1.38-3.42,2.89-4.95,4.53c-1.73,1.86-3.52,3.98-5.35,6.26c-3.64,4.6-7.06,8.66-9.11,11.89c-1.04,1.61-1.79,2.97-2.28,3.92
				c-0.23,0.51-0.51,0.99-0.81,1.46c0.04-0.14,0.08-0.28,0.14-0.42c0.1-0.26,0.25-0.65,0.48-1.15c0.65-1.38,1.36-2.72,2.17-4.01
				c1.98-3.33,5.36-7.43,9.02-12.08c1.85-2.3,3.64-4.43,5.4-6.27c1.57-1.63,3.26-3.13,5.07-4.48c1.22-0.91,2.53-1.7,3.89-2.39
				c0.48-0.24,0.87-0.39,1.13-0.51C318.1,377.08,318.23,377.04,318.37,377.04z"/>
			<path class="st0" d="M318.89,387.21c-1.01,0.23-2.04,0.37-3.07,0.44c-2.46,0.26-4.91,0.74-7.28,1.44
				c-2.34,0.77-4.53,1.94-6.49,3.43c-1.51,1.17-2.21,2.13-2.28,2.07c-0.07-0.05,0.12-0.28,0.45-0.7c0.49-0.59,1.02-1.15,1.6-1.64
				c1.94-1.62,4.18-2.86,6.58-3.63c2.41-0.72,4.9-1.15,7.42-1.31C316.84,387.18,317.87,387.16,318.89,387.21z"/>
			<path class="st0" d="M300.64,393.48c-0.17-0.1,1.22-2.21,2.29-5.06c1.07-2.85,1.24-5.39,1.42-5.36c0.08,0.55,0.06,1.11-0.04,1.65
				c-0.16,1.32-0.47,2.63-0.93,3.89c-0.46,1.25-1.06,2.44-1.78,3.57C301.35,392.64,301.03,393.1,300.64,393.48z"/>
			<path class="st0" d="M327.32,349.72c-0.16,0.11-0.32,0.19-0.49,0.26l-1.44,0.66c-0.63,0.27-1.4,0.61-2.26,1.07
				c-0.86,0.45-1.85,0.93-2.92,1.55l-1.67,0.93c-0.58,0.34-1.16,0.74-1.77,1.11c-1.23,0.75-2.47,1.68-3.79,2.62
				c-2.81,2.13-5.45,4.47-7.91,6.98c-2.43,2.55-4.67,5.28-6.69,8.16c-0.93,1.36-1.78,2.63-2.48,3.89c-0.36,0.62-0.74,1.22-1.05,1.81
				l-0.93,1.7c-0.6,1.07-1.03,2.1-1.44,2.99s-0.74,1.66-0.99,2.3l-0.6,1.46c-0.07,0.18-0.14,0.34-0.24,0.51
				c0.03-0.19,0.07-0.36,0.14-0.54c0.14-0.39,0.31-0.93,0.52-1.51c0.21-0.58,0.52-1.45,0.93-2.34c0.41-0.89,0.81-1.94,1.38-3.04
				l0.87-1.73c0.31-0.6,0.67-1.21,1.04-1.86c0.69-1.28,1.57-2.57,2.45-3.93c4-5.89,8.98-11.05,14.71-15.25
				c1.34-0.93,2.6-1.86,3.85-2.6c0.62-0.38,1.2-0.77,1.79-1.1l1.7-0.93c1.07-0.62,2.1-1.07,2.99-1.48c0.75-0.37,1.52-0.71,2.3-1
				l1.48-0.57C326.94,349.78,327.13,349.73,327.32,349.72z"/>
			<path class="st0" d="M305.4,364.45c0.2-0.72,0.62-1.34,1.2-1.8c1.36-1.17,3.07-1.84,4.86-1.86c1.75-0.01,3.48,0.33,5.1,1
				c0.69,0.21,1.34,0.52,1.94,0.93c-0.7-0.13-1.38-0.34-2.05-0.6c-1.6-0.54-3.29-0.83-4.98-0.83c-1.67,0.04-3.3,0.61-4.63,1.63
				C306.33,363.39,305.85,363.9,305.4,364.45z"/>
			<path class="st0" d="M302.12,367.83c0.66-1.43,1.12-2.95,1.38-4.5c0.1-1.57-0.01-3.14-0.31-4.69c0.05,0,0.33,0.44,0.57,1.31
				c0.59,2.26,0.31,4.68-0.79,6.74C302.53,367.46,302.16,367.87,302.12,367.83z"/>
			<path class="st0" d="M266.39,413.48c0.76,13.44,4.8,27.11,11.02,40.93h27.07c5.93-13.68,9.69-27.34,10.36-40.93H266.39z"/>
			<path class="st1" d="M310.42,435.19c0,0.14-8.9,0.25-19.88,0.25c-10.98,0-19.87-0.12-19.87-0.25s8.9-0.25,19.87-0.25
				C301.51,434.94,310.42,435.05,310.42,435.19z"/>
			<path class="st1" d="M309.82,440.06c0,0.14-8.34,0.26-18.64,0.26s-18.63-0.12-18.63-0.26s8.34-0.25,18.63-0.25
				C301.48,439.81,309.82,439.91,309.82,440.06z"/>
			<path class="st1" d="M277.85,422.27c0.34,4.16,0.34,8.33,0,12.48C277.51,430.59,277.51,426.43,277.85,422.27z"/>
			<path class="st1" d="M292.33,422.27c0.35,4.3,0.35,8.62,0,12.92C292,430.89,292,426.57,292.33,422.27z"/>
			<path class="st1" d="M305.93,422.16c0.34,4.39,0.34,8.8,0,13.18C305.59,430.96,305.59,426.54,305.93,422.16z"/>
			<path class="st1" d="M313.94,422.27c0,0.14-10.45,0.25-23.31,0.25c-12.86,0-23.32-0.12-23.32-0.25c0-0.13,10.45-0.25,23.32-0.25
				C303.51,422.02,313.94,422.13,313.94,422.27z"/>
			<path class="st0" d="M292.17,180.08c-0.02,2.44-2,4.4-4.44,4.39c-2.44-0.02-4.39-2.01-4.38-4.45c0.02-2.44,2-4.4,4.44-4.39
				c0.01,0,0.01,0,0.01,0C290.23,175.66,292.18,177.64,292.17,180.08z"/>
			<path class="st0" d="M278.94,174.39c4.61-4.96,12.35-5.24,17.29-0.62c0.13,0.13,0.27,0.26,0.4,0.39c2.25,2.27,5.79-1.23,3.52-3.5
				c-6.7-6.78-17.61-6.85-24.38-0.13c-0.12,0.12-0.22,0.22-0.33,0.33C273.25,173.17,276.73,176.71,278.94,174.39z"/>
			<path class="st0" d="M269.87,165.21c8.96-10.01,24.31-10.84,34.3-1.86c0.48,0.44,0.95,0.89,1.38,1.35
				c2.22,2.3,5.76-1.21,3.52-3.5c-11.15-11.69-29.64-12.11-41.3-0.94c-0.48,0.46-0.95,0.93-1.39,1.43
				C264.21,164.02,267.69,167.58,269.87,165.21z"/>
			<rect x="420.22" y="339.09" class="st4" width="152.41" height="70.44"/>
			<path class="st0" d="M569,406.21H423.7V342.8h145.29L569,406.21L569,406.21z M424.66,405.28h143.39v-61.53H424.66V405.28z"/>
			<rect x="572.64" y="339.09" class="st0" width="37.24" height="70.44"/>
			<path class="st0" d="M424.18,362.41h144.35c0.11-0.03,0.18-0.13,0.14-0.23c-0.02-0.07-0.07-0.13-0.14-0.14H424.18
				c-0.11,0.03-0.18,0.13-0.14,0.23C424.05,362.34,424.11,362.39,424.18,362.41z"/>
			<path class="st0" d="M496.83,362.23c0.4-6.37,0.42-12.76,0.04-19.13c-0.03-0.11-0.13-0.18-0.23-0.14
				c-0.07,0.02-0.13,0.07-0.14,0.14c-0.37,6.37-0.35,12.77,0.04,19.13c0.03,0.08,0.1,0.13,0.18,0.11
				C496.77,362.32,496.81,362.28,496.83,362.23L496.83,362.23z"/>
			<path class="st0" d="M535.68,352.66c0.01,1.09-0.87,1.98-1.97,1.99c-1.09,0.01-1.98-0.87-1.98-1.97
				c-0.01-1.09,0.87-1.98,1.97-1.99c0.01,0,0.01,0,0.01,0C534.79,350.68,535.67,351.56,535.68,352.66
				C535.68,352.65,535.68,352.65,535.68,352.66z"/>
			<path class="st0" d="M459.92,352.66c0,1.08-0.88,1.97-1.97,1.97s-1.97-0.88-1.97-1.97c0-1.08,0.88-1.97,1.97-1.97l0,0
				C459.04,350.69,459.92,351.58,459.92,352.66z"/>
			<path class="st0" d="M498.33,374.49c0.01,1.09-0.87,1.98-1.97,1.99c-1.1,0.01-1.98-0.87-1.98-1.97
				c-0.01-1.09,0.87-1.98,1.97-1.99c0.01,0,0.01,0,0.01,0C497.43,372.51,498.32,373.39,498.33,374.49
				C498.33,374.48,498.33,374.48,498.33,374.49z"/>
			<polygon class="st0" points="438.44,409.53 430.59,453.76 435.01,453.76 449.47,409.53 			"/>
			<polygon class="st0" points="561.84,409.53 568.41,453.83 564,453.83 550.81,409.53 			"/>
			<polygon class="st0" points="591.31,409.53 598.75,453.83 594.33,453.83 580.27,409.53 			"/>
			<path class="st0" d="M498.19,394.43c0,1.08-0.88,1.97-1.97,1.97s-1.97-0.88-1.97-1.97c0-1.08,0.88-1.97,1.97-1.97l0,0
				C497.31,392.47,498.19,393.35,498.19,394.43z"/>
			<path class="st0" d="M424.18,384.23h144.35c0.11-0.03,0.18-0.13,0.14-0.23c-0.02-0.07-0.07-0.13-0.14-0.14H424.18
				c-0.11,0.03-0.18,0.13-0.14,0.23C424.05,384.16,424.11,384.22,424.18,384.23z"/>
			
				<rect x="480.53" y="305.9" transform="matrix(1 -5.247020e-03 5.247020e-03 1 -1.6228 2.6465)" class="st0" width="46.08" height="9.4"/>
			
				<rect x="480.76" y="324.42" transform="matrix(1 -5.247020e-03 5.247020e-03 1 -1.7336 2.6619)" class="st4" width="51.37" height="14.61"/>
			<path class="st0" d="M522.28,338.79c-0.25-2.42-0.34-4.87-0.25-7.31c-0.08-2.43,0-4.87,0.25-7.3c0.25,2.42,0.33,4.86,0.25,7.3
				C522.6,333.92,522.52,336.36,522.28,338.79z"/>
			<path class="st0" d="M524.43,338.79c-0.24-2.43-0.32-4.87-0.24-7.31c-0.08-2.43,0-4.87,0.24-7.3c0.25,2.42,0.34,4.86,0.25,7.3
				C524.76,333.92,524.68,336.36,524.43,338.79z"/>
			<path class="st0" d="M488.53,338.79c-0.25-2.42-0.34-4.87-0.25-7.31c-0.08-2.43,0-4.87,0.25-7.3c0.25,2.42,0.34,4.86,0.25,7.3
				C488.87,333.92,488.79,336.36,488.53,338.79z"/>
			<path class="st0" d="M490.7,338.79c-0.25-2.42-0.34-4.87-0.25-7.31c-0.08-2.43,0-4.87,0.25-7.3c0.25,2.42,0.34,4.86,0.25,7.3
				C491.04,333.92,490.95,336.36,490.7,338.79z"/>
			<path class="st0" d="M495.4,331.77c0-0.14,5.18-0.26,11.57-0.26s11.57,0.12,11.57,0.26s-5.18,0.25-11.57,0.25
				S495.4,331.86,495.4,331.77z"/>
			
				<rect x="488.05" y="314.96" transform="matrix(1 -5.247020e-03 5.247020e-03 1 -1.6701 2.7315)" class="st3" width="63.38" height="9.4"/>
			<path class="st0" d="M542.38,323.03c-1.67,0.03-3.07-1.31-3.08-3c-0.03-1.68,1.31-3.07,2.99-3.09c1.67-0.03,3.07,1.31,3.08,3
				c0,0.02,0,0.04,0,0.05C545.38,321.67,544.05,323.03,542.38,323.03L542.38,323.03z"/>
			<rect x="491.72" y="319.06" class="st0" width="42.42" height="1.87"/>
		</g>
		<g id="freepik--Plant--inject-36">
			<path class="st5" d="M538.08,295.56c-8.24,4.27-14.55,11.62-19.08,19.72c-4.53,8.1-7.47,16.99-10.36,25.81l-2.53,45.49
				c9.57-16.32,17.26-35.52,19.34-54.33l-6.38-0.58c4.27-0.65,7.87-3.71,10.14-7.43c2.28-3.72,3.46-7.92,4.63-12.08l-7.77,1.16
				C532.21,309.18,536.51,302.81,538.08,295.56z"/>
			<g class="st6">
				<path d="M538.08,295.56c-8.24,4.27-14.55,11.62-19.08,19.72c-4.53,8.1-7.47,16.99-10.36,25.81l-2.53,45.49
					c9.57-16.32,17.26-35.52,19.34-54.33l-6.38-0.58c4.27-0.65,7.87-3.71,10.14-7.43c2.28-3.72,3.46-7.92,4.63-12.08l-7.77,1.16
					C532.21,309.18,536.51,302.81,538.08,295.56z"/>
			</g>
			<path class="st5" d="M504.69,397.25c0,0-20.79-24.93-20.54-48.76h8.4c0,0-9.13-6.01-8.4-9.38c0.72-3.37,0.93-16.1,0.93-16.1
				l7.68,1.92c0,0-5.76-2.89-6.49-7.43c-0.73-4.54,1.67-25.71,1.67-25.71s9.36,9.85,12.23,19.95c2.87,10.1,10.43,21.88,8.22,52.65
				C506.18,395.15,504.69,397.25,504.69,397.25z"/>
			<path class="st5" d="M515.22,399.61c0,0,22.52-15.03,27.53-34.22l-6.75-1.86c0,0,8.65-2.83,8.8-5.69
				c0.15-2.86,2.77-13.17,2.77-13.17l-6.6-0.14c0,0,5.26-1.05,6.84-4.57c1.58-3.52,4.26-21.04,4.26-21.04s-9.67,5.88-14.18,13.36
				c-4.52,7.48-13.2,15.29-18.15,40.55C514.82,398.09,515.22,399.61,515.22,399.61z"/>
			<path class="st7" d="M493.67,313.53c0.04,0.08,0.05,0.18,0.07,0.26c0.04,0.2,0.12,0.44,0.19,0.76c0.17,0.72,0.39,1.7,0.66,2.97
				c0.28,1.27,0.63,2.85,1,4.69c0.37,1.84,0.81,3.92,1.22,6.23c0.93,4.64,1.85,10.15,2.77,16.29c0.93,6.14,1.85,12.94,2.71,20.07
				c0.86,7.14,1.44,13.92,1.93,20.15c0.48,6.23,0.8,11.81,0.98,16.51c0.12,2.35,0.17,4.48,0.22,6.35c0.05,1.86,0.08,3.48,0.1,4.79
				c0.01,1.31,0,2.3,0,3.04c0,0.33,0,0.59,0,0.79c0.01,0.09,0.01,0.18,0,0.27c-0.01-0.09-0.01-0.18,0-0.27c0-0.2,0-0.46-0.04-0.79
				c0-0.72-0.07-1.73-0.12-3.03c-0.04-1.3-0.1-2.92-0.18-4.79c-0.08-1.86-0.16-4-0.29-6.34c-0.22-4.7-0.6-10.28-1.08-16.49
				c-0.48-6.21-1.15-13-1.97-20.14s-1.76-13.92-2.67-20.06c-0.91-6.13-1.85-11.68-2.7-16.3c-0.4-2.33-0.81-4.41-1.16-6.23
				c-0.35-1.83-0.65-3.42-0.93-4.71c-0.28-1.3-0.43-2.26-0.58-2.97l-0.14-0.77C493.67,313.7,493.66,313.61,493.67,313.53z"/>
			<path class="st5" d="M501.82,412.55c0,0-19.02-21.62-24.92-34.7l4.46-1.86c-3.23,0.53-6.54-0.86-9.05-2.97
				c-2.4-2.24-4.47-4.81-6.15-7.64l5.87-0.99c-5.4-1.57-10-5.16-12.82-10.04c6.93,1.15,13.2,4.95,18.37,9.72
				c4.09,3.95,7.82,8.28,11.12,12.92c1.67,2.23,3.11,4.62,4.31,7.12C496.19,390.74,501.82,404.57,501.82,412.55z"/>
			<path class="st7" d="M543.05,331.52c-0.02,0.08-0.04,0.15-0.08,0.22c-0.07,0.17-0.18,0.37-0.28,0.63
				c-0.28,0.59-0.66,1.39-1.15,2.41c-1.02,2.08-2.45,5.1-4.21,8.84c-3.49,7.49-8.09,17.95-12.63,29.72
				c-4.55,11.76-8.16,22.62-10.61,30.53c-1.22,3.95-2.19,7.15-2.84,9.38c-0.33,1.07-0.58,1.94-0.76,2.56
				c-0.08,0.27-0.16,0.48-0.21,0.66c-0.02,0.08-0.04,0.15-0.08,0.22c-0.02-0.08-0.02-0.16,0-0.23l0.17-0.67
				c0.16-0.63,0.39-1.48,0.67-2.58c0.58-2.24,1.51-5.46,2.68-9.42c2.37-7.93,5.94-18.81,10.48-30.64
				c4.55-11.83,9.21-22.29,12.78-29.72c1.79-3.71,3.27-6.73,4.33-8.78c0.53-1,0.93-1.79,1.23-2.37c0.13-0.24,0.25-0.44,0.34-0.61
				C542.93,331.6,542.99,331.56,543.05,331.52z"/>
			<path class="st7" d="M503.42,421.84c-0.14-0.51-0.24-1.02-0.29-1.55c-0.15-0.99-0.4-2.43-0.75-4.2
				c-0.93-4.6-2.21-9.12-3.86-13.51c-1.67-4.39-3.68-8.63-6.02-12.71c-0.93-1.56-1.67-2.78-2.21-3.65c-0.31-0.43-0.57-0.88-0.8-1.36
				c0.34,0.39,0.65,0.81,0.93,1.24c0.6,0.82,1.4,2.04,2.35,3.59c4.92,8.07,8.29,16.99,9.98,26.29c0.31,1.78,0.51,3.23,0.6,4.24
				C503.42,420.75,503.44,421.3,503.42,421.84z"/>
			<rect x="486.89" y="416.7" class="st8" width="41.63" height="8.51"/>
			<polygon class="st8" points="490.86,425.2 495.36,453.83 520.51,453.83 524.71,425.2 			"/>
			<path class="st7" d="M525.96,425.2c0,0.14-7.88,0.24-17.6,0.24c-9.73,0-17.6-0.1-17.6-0.24s7.87-0.24,17.6-0.24
				C518.09,424.96,525.96,425.08,525.96,425.2z"/>
		</g>
		<g id="freepik--Earth--inject-36">
			<ellipse class="st8" cx="477.63" cy="177.14" rx="93.37" ry="94.19"/>
			<g class="st6">
				<path d="M443.05,219.13c0.49-4.09,3.7-8.26,1.85-11.96c-2.06-4.13-8.04-3.46-12.24-5.31c-5.87-2.59-7.7-9.91-11.54-15.07
					c-3.45-4.64-11.48-9.7-17.6-8.31c-4.43,1.01-5.95,3.66-6.41,6.92l-0.55-0.1c-1.64-0.18-3.56-0.26-4.47-1.62
					c-1.05-1.59,0-3.93-1.1-5.5c-0.67-0.71-1.46-1.3-2.34-1.75c-0.8-0.55-1.47-1.62-0.99-2.49c0.49-0.86,1.44-0.87,1.96-1.54
					c0.42-0.55,0.42-1.31,0-1.86c-1.68-2-3.56,2.08-4.49,3.04c-0.24,0.25-0.49,0.49-0.75,0.72l0,0c-0.01,0.18-0.01,0.35,0,0.52
					c0,0.55,0,1.13,0,1.69c0,0.57,0,1.13,0,1.69c0,0.57,0,0.93,0,1.37c0,0.44,0,0.93,0,1.37c1.01,0.37,1.98,0.85,2.88,1.42
					c1.85,1.05,3.84,2.44,3.95,4.54c-0.04,0.34,0.04,0.69,0.19,0.99c0.23,0.25,0.54,0.4,0.87,0.44c1.56,0.37,3.15,0.59,4.74,0.66
					c0,1.86,0.16,3.85,0.13,5.72c-0.04,2.71-0.93,5.39-0.64,8.07c0.43,3.79,3.07,6.9,5.35,9.94c8.71,11.67,13.41,25.06,18.53,38.76
					l0,0c0.93,0.75,2.29,1.75,3.27,2.45c0.77,0.55,1.47,1.04,2.26,1.57c0.79,0.53,1.49,0.99,2.29,1.48c0.55,0.36,0.67,0.45,1.27,0.8
					c-0.07-0.17,0.07,0.12,0,0c-2.06-4.51-2.06-10.77,2.35-13c0.89-0.32,1.73-0.76,2.51-1.31c1.97-1.86,0.35-5.71,2.32-7.57
					c1.11-1.04,2.84-0.93,4.21-1.59c2.47-1.15,3.27-4.31,3.07-7.02C443.74,224.57,442.74,221.83,443.05,219.13z"/>
			</g>
			<g class="st6">
				<path d="M390.06,150.18c1.75-1.49,4.76-1.67,6.1,0.2c0.93,1.32,0.74,3.16,0.49,4.79c-0.34,2.19-0.67,4.39-1.04,6.57
					c-0.16,0.65-0.13,1.33,0.1,1.97c0.65,1.39,2.92,1.13,3.8-0.12c0.87-1.25,0.78-2.95,0.55-4.46c-0.23-1.51-0.55-3.12,0-4.54
					c1.48-3.52,6.72-2.99,9.76-5.28c1.85-1.42,2.73-3.81,3.85-5.9c1.13-2.09,3-4.17,5.36-4.07c0.8,0,1.59,0.33,2.38,0.29
					c2.34-0.07,3.7-3.5,2.04-5.15c-0.39-0.31-0.74-0.67-1.04-1.07c-0.34-0.85-0.03-1.83,0.74-2.33c0.75-0.46,1.6-0.74,2.48-0.8
					c1.99-0.34,3.99-0.64,5.98-0.93c2.21-0.34,5.02-1.48,4.71-3.71c-0.27-1.92-2.85-2.78-3.23-4.64c-0.04-0.47-0.12-0.94-0.25-1.39
					c-0.61-1.21-2.43-0.72-3.59-0.07c-0.54-1.51-2.19-2.3-3.69-1.76c-0.25,0.09-0.48,0.2-0.69,0.36c-1.19,0.93-1.34,2.69-1.75,4.16
					c-0.98,3.55-3.8,6.25-6.49,8.75c-0.82,0.94-1.93,1.57-3.15,1.78c-1.22,0.05-2.51-1.27-1.94-2.34c0.38-0.75,1.44-1.17,1.34-2.01
					c-0.15-1.03-1.96-0.93-2.3-1.94c0.72-2.93,4.07-4.15,6.64-5.71c3.15-1.93,5.55-4.87,6.79-8.35c0.27-0.53,0.3-1.16,0.08-1.72
					c-0.38-0.74-1.36-0.85-2.21-0.85c-1.98,0-4.45,0.24-5.17,2.09c-0.38,0.99-0.1,2.11-0.34,3.14c-0.69,3.08-4.9,3.43-7.47,5.26
					c-0.9,0.83-1.88,1.58-2.9,2.26c-1.26,0.44-2.6,0.67-3.92,0.63c-0.23,0-0.83,0-1.07,0c-0.82,1.13-1.45,2.16-2.21,3.33
					c-0.75,1.17-1.51,2.49-2.21,3.71c-3.29,5.75-5.95,11.84-7.93,18.15c-0.72,2.22-1.36,4.64-1.91,6.88
					c-0.55,2.24-0.93,4.46-1.32,6.8c0.79-1.89,1.36-3.86,1.68-5.89C387.61,154.02,388.33,151.65,390.06,150.18z"/>
			</g>
			<g class="st6">
				<path d="M468.51,107.86c0.89-1.16,0.62-2.78,1.2-4.17c0.93-2.23,3.9-3.03,4.93-5.22c0.39-0.84,0.49-1.86,1.18-2.51
					c0.69-0.65,1.43-0.62,2.04-1.1c1.38-1.06,0.81-3.46-0.66-4.39c-3.66-2.35-10.4,0.36-13.56,2.65c-4.07,2.95-8.05,6.5-13.47,6.15
					c-1.49-0.1-3.04-0.51-4.44,0c-1.4,0.51-2.26,2.64-1.05,3.52c0.66,0.49,1.62,0.36,2.37,0.7c1.4,0.65,1.53,2.67,0.85,4.06
					c-0.69,1.39-1.91,2.42-2.71,3.71c-0.78,1.29-1.13,2.79-1,4.29c0.03,1.07,0.48,2.07,1.27,2.78c1.67,1.34,4.24,0.2,5.67-1.42
					c1.43-1.62,2.41-3.71,4.25-4.82c0.96-0.51,1.98-0.86,3.04-1.06l7.05-1.68C466.64,109.23,467.71,108.7,468.51,107.86z"/>
			</g>
			<g class="st6">
				<path d="M570.99,176.43c0-1.34-0.05-2.68-0.12-4.01c-0.07-1.32-0.13-2.67-0.26-4c-0.1-1.07-0.19-2.13-0.34-3.19
					c-0.15-1.05-0.29-2.39-0.48-3.48c-0.51-3.18-1.2-6.31-2.06-9.42c-0.35-1.22-0.93-2.51-1.34-3.71c-0.41-1.2-0.81-2.39-1.25-3.57
					l0,0c-0.48-0.93-0.97-1.75-1.52-2.62c-5.19-8.22-12.72-14.68-18.43-22.55c-1.85-2.57-3.3-4.64-6.6-5.18
					c-4.87-0.76-7.34,2.02-10.81-2.61c-0.93-1.24-2.55-2.4-3.92-1.66l1.11,2.97c0.09,0.2,0.13,0.44,0.12,0.66
					c-0.07,0.69-1.1,0.89-1.69,0.51c-0.53-0.48-0.97-1.04-1.29-1.67c-1.61-2.09-4.62-2.46-6.69-0.84c-0.12,0.08-0.22,0.18-0.32,0.27
					c-0.09-0.96-0.68-1.79-1.56-2.19c-0.28,1.75-1.92,2.95-3.67,2.66c-0.12-0.02-0.23-0.04-0.35-0.08c-0.28-0.93,1.34-1.07,1.9-1.86
					c0.57-0.79-0.12-1.73-0.77-2.34c-1.79-1.55-4.06-2.44-6.43-2.49c-1.49,0-3.11,0.25-4.4-0.52c-0.75-0.44-1.29-1.19-2.06-1.62
					c-1.64-0.93-3.7-0.07-5.34,0.84c-2.26,1.25-4.63,2.84-5.4,5.31c-0.76,2.48,0.98,5.8,3.54,5.48c0.63-0.2,1.3-0.28,1.97-0.22
					c0.89,0.4,1.44,1.3,1.4,2.26c-0.05,0.95,0.09,1.9,0.43,2.78c0.44,0.83,1.79,1.24,2.29,0.46c1.21-1.16,1.06-3.1,0.76-4.74
					c-0.31-1.64-0.64-3.49,0.34-4.84c0.97-1.34,3.8-0.93,3.61,0.75c-0.12,0.93-1.22,1.69-1.18,2.67s1.27,1.54,2.27,1.49
					c1-0.04,2.03-0.4,3-0.14c0.97,0.26,1.77,1.53,1.06,2.25c-1.23,1.39-4.42-0.99-5.05,0.75c-0.19,0.44,0,0.93,0,1.42
					c-0.12,1.45-1.94,1.98-3.38,2.16c-1.44,0.29-2.92,0.19-4.3-0.31c-1.31-0.62-2.21-2.35-1.46-3.6c-0.81-0.42-1.79-0.1-2.21,0.71
					c-0.02,0.04-0.04,0.07-0.05,0.12c-0.31,0.86-0.37,1.79-0.17,2.69c-1.53-0.34-2.91,0.93-3.78,2.25
					c-0.87,1.31-1.72,2.78-3.22,3.28c-1.5,0.5-3.58-0.17-4.36,1.2c-1.02,1.78,1.94,4.02,0.93,5.78c-0.59,0.99-2.01,0.93-3.14,1.27
					c-2.97,0.84-4,5.2-1.98,7.52c2.02,2.33,6.07,2.19,8.2,0c1.51-1.53,2.1-3.67,3.18-5.5c1.08-1.84,3.13-3.48,5.17-2.89
					c0.79,0.29,1.51,0.75,2.11,1.32l2.97,2.51c0.64,0.53,1.34,1.2,1.27,2.02c-0.05,0.67-0.58,1.19-0.8,1.81
					c-0.62,1.79,1.97,3.49,3.59,2.51c1.63-0.98,1.8-3.48,0.69-5.03c-1.53-2.13-5-3.19-4.91-5.82c1.77-1.45,4.56,0.07,5.56,2.13
					c0.99,2.06,1.06,4.47,1.94,6.59c0.87,2.11,3.3,4.01,5.34,2.97c-0.54-1.86-1.05-3.66-1.59-5.48c1.31-0.98,2.77,1.86,4.35,1.39
					c0.93-0.29,1.06-1.66,0.65-2.58c-0.42-0.91-1.14-1.68-1.31-2.67c-0.29-1.81,1.72-3.43,3.54-3.13c1.82,0.46,3.18,1.96,3.46,3.83
					c0.07,0.72,0.23,1.43,0.48,2.11c0.69,1.42,2.44,1.86,3.89,2.44c1.45,0.59,2.97,2.05,2.37,3.51c-0.28,0.63-0.93,1.23-0.72,1.86
					c0.21,0.62,1.08,0.83,1.08,1.45c0,0.41-0.44,0.69-0.83,0.85c-0.97,0.4-2.04,0.54-2.99,0.99c-1,0.39-1.67,1.32-1.72,2.4
					c0.12,1.48,1.85,2.19,2.7,3.43c0.84,1.23,0.69,2.72,1.19,4.06c0.59,1.17,1.35,2.26,2.23,3.24c2.45,3.34,3.03,7.64,4.23,11.61
					c0.53,1.79,1.51,3.79,3.33,4.13c1.02,0.08,2.04-0.12,2.96-0.58c2.64-1.05,5.4-2.18,7.24-4.32c1.84-2.15,2.48-5.66,0.58-7.79
					c-0.22-0.31-0.55-0.51-0.93-0.58c-0.5,0.03-0.97,0.2-1.39,0.48c-1.44,0.51-3.05,0.15-4.12-0.93c-1.05-1.07-1.88-2.33-2.45-3.71
					l-2.19-4.42c0.99-0.64,2.3-0.51,3.15,0.29c0.81,0.81,1.53,1.7,2.15,2.66c2.2,2.78,5.81,3.96,9.32,4.39
					c0.9,0.04,1.78,0.23,2.62,0.55c2.62,1.2,3.38,5.06,6.13,5.89c0.8,0.13,1.58,0.3,2.35,0.53c1.04,0.66,1.75,1.72,1.97,2.93
					c0.6,2.18,0.81,4.47,1.72,6.54s2.77,3.95,5,3.98c1.4-0.03,2.74-0.59,3.7-1.62c0.12-2.04,0.25-4.16,0.25-6.23
					C571.01,177.28,571.01,176.85,570.99,176.43z"/>
			</g>
			<g class="st6">
				<path d="M533.2,215.26c-1.39,0.27-1.67,1.1-2.43,2.13c-0.98,1.34-2.39,2.68-3.29,4.01c-1.51,2.25-0.15,5.75-2.14,7.64
					c-0.44,0.33-0.88,0.68-1.29,1.06c-0.75,1.04-0.54,2.49,0.48,3.27c1.05,0.7,2.41,0.73,3.48,0.07c1.04-0.68,1.8-1.72,2.13-2.92
					c0.13-0.88,0.51-1.7,1.07-2.39c1.15-1,2.91-0.26,4.43-0.48C542.03,226.75,539.29,214.05,533.2,215.26z"/>
			</g>
			<g class="st6">
				<path d="M535.36,197.59c3.7-3.19,5.17-10.41,0.59-12.08c-1.73-0.63-3.7-0.12-5.45-0.79c-2.24-0.87-3.29-3.39-4.09-5.66
					c-2.13-5.95-4.26-11.91-6.39-17.86c-1.28-3.59-3.22-7.74-6.98-8.28c-2.14-0.29-4.21,0.72-6.33,1.1
					c-7.29,1.34-19.56-16.36-25.11-4.45c-0.78-3.24-6.02-2.02-7.7,0.85s-2.04,6.68-4.7,8.67c-2.03,1.53-5,1.62-6.65,3.54
					c-1.17,1.36-1.36,3.26-1.52,5.04c-0.28,3.41-0.55,6.81-0.84,10.21c-0.22,2.73-0.41,5.67,0.93,8.07c1.34,2.4,4.9,3.71,6.93,1.86
					c0.93-0.85,1.32-2.15,2.08-3.16c1.29-1.64,3.43-2.37,5.45-1.86c1.63,0.57,3.07,1.58,4.16,2.92
					c9.5,10.21,12.89,24.83,13.32,38.81c0.08,2.57,0.08,5.19,1.02,7.57c1.1,2.78,3.42,5.05,4.1,7.96c0.53,2.25,0,4.71,0.99,6.81
					c1.77,3.85,7.67,4.01,10.88,1.25c3.22-2.76,4.32-7.21,4.98-11.41c0.66-4.2,1.06-8.6,3.41-12.14c1.45-2.2,3.59-3.95,4.63-6.37
					c1.42-3.39,0.37-7.43,1.68-10.84C526.51,202.81,531.68,200.78,535.36,197.59z"/>
			</g>
		</g>
		<g id="freepik--Connection--inject-36">
			<path class="st1" d="M417.33,357.64c-13.71,1.12-25.73-9.12-26.84-22.85c-1.12-13.74,9.1-25.78,22.8-26.89
				c13.71-1.12,25.73,9.12,26.84,22.85c0.12,1.35,0.12,2.71,0,4.06C439.13,346.97,429.48,356.64,417.33,357.64z"/>
			<path class="st9" d="M417.33,357.64c-13.71,1.12-25.73-9.12-26.84-22.85c-1.12-13.74,9.1-25.78,22.8-26.89
				c13.71-1.12,25.73,9.12,26.84,22.85c0.12,1.35,0.12,2.71,0,4.06C439.13,346.97,429.48,356.64,417.33,357.64z"/>
			<path class="st7" d="M417.33,357.64l0.4-0.07l1.18-0.17c0.63-0.09,1.24-0.22,1.85-0.38c0.85-0.19,1.68-0.44,2.51-0.74
				c5.29-1.87,9.81-5.46,12.81-10.21c0.99-1.55,1.81-3.21,2.45-4.94c0.32-0.91,0.58-1.84,0.81-2.78c0.1-0.49,0.22-0.98,0.31-1.47
				c0.08-0.51,0.13-1.01,0.19-1.54c0.07-0.51,0.1-1.04,0.08-1.56c0-0.52,0-1.05,0-1.59c-0.05-1.06-0.15-2.15-0.29-3.23
				c-0.12-0.55-0.21-1.08-0.33-1.63c-0.07-0.27-0.1-0.55-0.18-0.82l-0.26-0.81c-0.17-0.54-0.34-1.08-0.52-1.63l-0.69-1.58l-0.35-0.8
				c-0.13-0.26-0.28-0.51-0.43-0.77l-0.93-1.54l-1.05-1.45l-0.53-0.74l-0.61-0.67c-1.62-1.87-3.53-3.49-5.63-4.79l-1.65-0.93
				c-0.57-0.28-1.16-0.52-1.75-0.79c-0.29-0.12-0.58-0.27-0.93-0.38l-0.93-0.28c-0.61-0.22-1.22-0.4-1.85-0.55
				c-2.58-0.59-5.23-0.81-7.87-0.64c-10.32,0.91-19,8.13-21.8,18.14c-0.58,2.19-0.87,4.45-0.85,6.71c-0.03,0.54,0.01,1.09,0.07,1.63
				l0.14,1.62c0.19,1.04,0.37,2.09,0.64,3.08c1.03,3.71,2.9,7.13,5.45,10.02c2.12,2.36,4.66,4.31,7.49,5.74l1.85,0.83
				c0.59,0.26,1.2,0.41,1.77,0.61c1.04,0.34,2.1,0.59,3.18,0.78c1.49,0.27,3,0.39,4.52,0.36h1.59h-0.4l-1.19,0.05
				c-1.52,0.05-3.05-0.04-4.55-0.28c-1.09-0.17-2.16-0.42-3.22-0.75c-0.58-0.19-1.2-0.34-1.8-0.59l-1.85-0.82
				c-6.46-3.18-11.26-8.95-13.21-15.88c-0.28-1.01-0.45-2.07-0.66-3.13l-0.14-1.63c-0.07-0.55-0.1-1.11-0.08-1.66
				c-0.12-7.38,3.06-14.42,8.65-19.22c4.07-3.54,9.16-5.69,14.53-6.13c2.68-0.18,5.4,0.04,8.01,0.66c0.65,0.16,1.28,0.35,1.9,0.57
				l0.93,0.29c0.31,0.12,0.6,0.26,0.93,0.39c0.59,0.27,1.2,0.51,1.78,0.81l1.67,0.93c2.15,1.32,4.09,2.97,5.74,4.89l0.61,0.69
				l0.55,0.75l1.06,1.47c0.29,0.53,0.6,1.05,0.93,1.57c0.14,0.26,0.31,0.51,0.43,0.78l0.36,0.82c0.23,0.54,0.46,1.07,0.7,1.62
				c0.24,0.54,0.34,1.1,0.52,1.65l0.26,0.83c0.07,0.27,0.12,0.55,0.18,0.83l0.34,1.66c0.14,1.1,0.23,2.21,0.28,3.29
				c0,0.55,0,1.08-0.04,1.62c0,0.53-0.03,1.06-0.1,1.59c-0.07,0.52-0.14,1.04-0.2,1.55c-0.07,0.51-0.21,1-0.31,1.49
				c-0.23,0.97-0.51,1.92-0.83,2.86c-0.66,1.75-1.5,3.43-2.51,4.99c-1.75,2.71-3.99,5.05-6.6,6.92c-1.98,1.39-4.14,2.49-6.43,3.27
				c-0.83,0.28-1.68,0.51-2.55,0.69c-0.61,0.15-1.23,0.27-1.85,0.34l-1.18,0.12C417.67,357.61,417.5,357.63,417.33,357.64z"/>
			<path class="st7" d="M578.33,188.25c-0.04-1.84,0.03-3.67,0.2-5.5c0.01-1.84,0.14-3.67,0.39-5.49c0.23,1.83,0.27,3.68,0.1,5.51
				C579.01,184.62,578.78,186.46,578.33,188.25z"/>
			<path class="st7" d="M573.65,209.7c0.35-1.79,0.81-3.58,1.36-5.32c0.42-1.78,0.93-3.55,1.56-5.27c-0.15,1.84-0.51,3.65-1.08,5.41
				C575.07,206.31,574.45,208.05,573.65,209.7z"/>
			<path class="st7" d="M564.44,229.64c0.73-1.68,1.56-3.31,2.49-4.89c0.79-1.66,1.67-3.26,2.65-4.81
				C568.34,223.4,566.61,226.66,564.44,229.64z"/>
			<path class="st7" d="M551.17,247.08c1.07-1.48,2.23-2.9,3.48-4.24c1.12-1.45,2.33-2.83,3.62-4.13c-0.91,1.6-2,3.09-3.26,4.44
				C553.89,244.59,552.6,245.91,551.17,247.08z"/>
			<path class="st7" d="M534.49,261.3c1.36-1.23,2.79-2.37,4.3-3.41c1.41-1.17,2.89-2.26,4.43-3.26c-1.23,1.37-2.62,2.58-4.14,3.64
				C537.67,259.45,536.12,260.47,534.49,261.3z"/>
			<path class="st7" d="M515.13,271.6c1.59-0.91,3.24-1.7,4.93-2.4c1.63-0.84,3.3-1.59,5.02-2.23c-1.51,1.07-3.12,1.96-4.82,2.66
				C518.64,270.48,516.92,271.15,515.13,271.6z"/>
			<path class="st7" d="M494.03,277.46c1.75-0.53,3.54-0.95,5.33-1.27c1.77-0.48,3.56-0.84,5.38-1.08
				C501.31,276.4,497.69,277.19,494.03,277.46z"/>
			<path class="st7" d="M472.17,278.63c1.83-0.19,3.66-0.22,5.48-0.1c1.83-0.13,3.67-0.1,5.48,0.1
				C479.5,279.16,475.81,279.16,472.17,278.63L472.17,278.63z"/>
			<path class="st7" d="M450.52,275.13c1.82,0.25,3.61,0.61,5.38,1.08c1.81,0.31,3.58,0.74,5.33,1.27
				c-1.83-0.05-3.66-0.32-5.44-0.79C453.98,276.38,452.21,275.85,450.52,275.13z"/>
			<path class="st7" d="M430.18,266.97c1.72,0.64,3.38,1.39,5.01,2.23c1.69,0.69,3.35,1.49,4.93,2.4c-3.52-1.07-6.87-2.64-9.95-4.64
				V266.97z"/>
			<path class="st7" d="M412.06,254.64c1.53,0.99,3.01,2.09,4.42,3.25c1.51,1.04,2.94,2.18,4.3,3.41c-1.66-0.83-3.21-1.84-4.63-3.02
				C414.66,257.23,413.28,256.01,412.06,254.64z"/>
			<path class="st7" d="M396.99,238.7c1.29,1.31,2.5,2.68,3.62,4.13c1.25,1.34,2.41,2.76,3.48,4.24c-1.43-1.16-2.72-2.48-3.85-3.92
				C398.99,241.8,397.9,240.3,396.99,238.7z"/>
			<path class="st7" d="M385.67,219.9c0.98,1.55,1.87,3.16,2.66,4.82c0.93,1.59,1.76,3.23,2.49,4.92c-1.14-1.43-2.13-2.99-2.91-4.64
				C386.98,223.39,386.22,221.67,385.67,219.9z"/>
			<path class="st7" d="M378.69,199.1c0.62,1.72,1.14,3.49,1.55,5.27c0.57,1.74,1.03,3.52,1.38,5.32c-0.82-1.65-1.44-3.39-1.85-5.19
				C379.2,202.75,378.83,200.93,378.69,199.1z"/>
			<path class="st7" d="M376.33,177.27c0.24,1.82,0.37,3.65,0.39,5.49c0.18,1.83,0.25,3.66,0.19,5.5c-0.43-1.79-0.66-3.63-0.67-5.47
				C376.06,180.96,376.09,179.1,376.33,177.27z"/>
			<path class="st7" d="M378.68,155.45c-0.15,1.83-0.42,3.65-0.79,5.44c-0.21,1.83-0.54,3.63-0.97,5.42
				c-0.04-1.84,0.13-3.68,0.51-5.49C377.63,158.98,378.06,157.18,378.68,155.45z"/>
			<path class="st7" d="M385.67,134.64c-0.54,1.75-1.19,3.47-1.94,5.15c-0.6,1.73-1.31,3.43-2.11,5.07
				c0.35-1.81,0.91-3.57,1.67-5.26C383.89,137.86,384.69,136.2,385.67,134.64z"/>
			<path class="st7" d="M396.99,115.84c-0.91,1.59-1.92,3.13-3.01,4.6c-0.96,1.56-2.01,3.06-3.15,4.49
				c0.74-1.69,1.67-3.29,2.77-4.77C394.57,118.6,395.7,117.15,396.99,115.84z"/>
			<path class="st7" d="M412.05,99.9c-1.23,1.36-2.53,2.65-3.92,3.85c-1.27,1.32-2.62,2.57-4.05,3.71c1.08-1.49,2.32-2.85,3.7-4.06
				C409.07,102.09,410.5,100.91,412.05,99.9z"/>
			<path class="st7" d="M430.18,87.58c-1.49,1.07-3.03,2.04-4.63,2.92c-1.52,1.02-3.11,1.94-4.74,2.78c1.36-1.23,2.88-2.3,4.49-3.18
				C426.82,89.09,428.45,88.24,430.18,87.58z"/>
			<path class="st7" d="M450.51,79.44c-1.68,0.72-3.41,1.34-5.17,1.86c-1.7,0.66-3.46,1.21-5.23,1.64c1.6-0.9,3.3-1.61,5.07-2.11
				C446.91,80.17,448.69,79.69,450.51,79.44z"/>
			<path class="st7" d="M472.17,75.9c-1.8,0.34-3.62,0.57-5.45,0.69c-1.81,0.28-3.63,0.44-5.46,0.49
				C464.83,76.18,468.5,75.78,472.17,75.9z"/>
			<path class="st7" d="M494.01,77.08c-1.83-0.05-3.65-0.22-5.47-0.51c-1.83-0.12-3.65-0.34-5.45-0.67c1.83-0.14,3.69-0.07,5.5,0.2
				C490.44,76.22,492.26,76.54,494.01,77.08z"/>
			<path class="st7" d="M515.13,82.94c-1.78-0.44-3.52-1.01-5.23-1.67c-1.76-0.51-3.48-1.13-5.17-1.86
				c1.83,0.26,3.61,0.72,5.32,1.39C511.82,81.32,513.52,82.03,515.13,82.94z"/>
			<path class="st7" d="M534.48,93.23c-1.64-0.83-3.22-1.76-4.74-2.78c-1.6-0.88-3.15-1.86-4.63-2.92c1.72,0.65,3.37,1.47,4.9,2.49
				C531.61,90.93,533.11,92,534.48,93.23z"/>
			<path class="st7" d="M551.16,107.45c-1.43-1.15-2.77-2.4-4.05-3.71c-1.38-1.2-2.68-2.48-3.91-3.84c1.54,1,2.97,2.18,4.24,3.49
				C548.84,104.6,550.09,105.97,551.16,107.45z"/>
			<path class="st7" d="M564.44,124.91c-1.15-1.43-2.2-2.93-3.15-4.49c-1.1-1.48-2.11-3.04-3.01-4.64c1.29,1.31,2.45,2.76,3.41,4.32
				C562.78,121.6,563.71,123.21,564.44,124.91z"/>
			<path class="st7" d="M573.65,144.84c-0.81-1.64-1.52-3.34-2.13-5.08c-0.75-1.68-1.4-3.39-1.94-5.13c0.98,1.55,1.79,3.22,2.4,4.96
				C572.73,141.27,573.29,143.04,573.65,144.84z"/>
			<path class="st7" d="M578.33,166.28c-0.42-1.78-0.73-3.59-0.93-5.42c-0.37-1.79-0.64-3.61-0.79-5.44
				c0.62,1.73,1.05,3.54,1.27,5.36C578.25,162.6,578.4,164.44,578.33,166.28z"/>
			<path class="st7" d="M424.45,309.49c-0.12-0.05,3.58-8.46,8.27-18.79c4.69-10.33,8.59-18.65,8.7-18.57
				c0.12,0.08-3.58,8.46-8.27,18.79C428.46,301.25,424.56,309.55,424.45,309.49z"/>
			<path class="st8" d="M417.62,333.18c2.4-1.06,3.94-3.45,3.91-6.08c0.2-3.4-2.39-6.33-5.79-6.53c-3.39-0.2-6.32,2.4-6.51,5.8
				c-0.01,0.22-0.02,0.44-0.01,0.67c-0.05,2.65,1.5,5.07,3.92,6.14c-9.47,1.43-9.04,11.75-9.04,11.75l22.41,0.1
				C426.5,345.04,427.01,334.6,417.62,333.18z"/>
			<path class="st1" d="M602.64,295.05c-12.5,5.77-27.29,0.29-33.06-12.23c-5.76-12.53-0.29-27.35,12.21-33.13
				c12.5-5.77,27.29-0.29,33.06,12.23c0.57,1.23,1.04,2.51,1.39,3.83C619.46,277.54,613.71,289.93,602.64,295.05z"/>
			<path class="st9" d="M602.64,295.05c-12.5,5.77-27.29,0.29-33.06-12.23c-5.76-12.53-0.29-27.35,12.21-33.13
				c12.5-5.77,27.29-0.29,33.06,12.23c0.57,1.23,1.04,2.51,1.39,3.83C619.46,277.54,613.71,289.93,602.64,295.05z"/>
			<path class="st7" d="M602.64,295.05c0.11-0.08,0.22-0.16,0.34-0.21l1.05-0.55c0.57-0.31,1.11-0.64,1.64-1
				c0.74-0.48,1.44-0.99,2.11-1.56c1.84-1.53,3.46-3.31,4.82-5.28c2.81-4.19,4.31-9.12,4.33-14.16c-0.01-0.98-0.08-1.96-0.2-2.93
				c-0.07-0.49-0.12-0.99-0.21-1.49c-0.1-0.51-0.23-0.99-0.35-1.49c-0.12-0.51-0.27-1.01-0.44-1.49l-0.51-1.51
				c-0.42-0.99-0.89-1.97-1.39-2.95l-0.86-1.42c-0.15-0.23-0.28-0.48-0.44-0.7l-0.52-0.67c-0.34-0.45-0.69-0.93-1.05-1.36l-1.2-1.24
				l-0.6-0.63c-0.21-0.2-0.44-0.38-0.66-0.58l-1.36-1.13l-1.48-1l-0.76-0.51l-0.8-0.43c-2.17-1.19-4.51-2.05-6.94-2.54l-1.85-0.33
				c-0.63-0.07-1.28-0.1-1.91-0.15l-0.93-0.05h-0.93c-0.65,0.04-1.29,0-1.94,0.12c-2.62,0.32-5.18,1.02-7.6,2.1
				c-9.44,4.36-15.19,14.15-14.4,24.54c0.2,2.26,0.7,4.47,1.49,6.6c0.18,0.52,0.38,1.02,0.63,1.51l0.67,1.46
				c0.55,0.93,1.06,1.86,1.66,2.68c2.23,3.13,5.17,5.71,8.55,7.52c2.79,1.5,5.85,2.46,8.99,2.83l2.01,0.14c0.65,0,1.28,0,1.85,0
				c1.1-0.04,2.19-0.16,3.26-0.36c1.51-0.28,2.99-0.7,4.41-1.27l1.11-0.41c0.12-0.05,0.26-0.1,0.39-0.12c0,0-0.12,0.07-0.37,0.17
				l-1.1,0.45c-1.41,0.59-2.88,1.02-4.38,1.31c-1.07,0.23-2.16,0.38-3.26,0.45c-0.61,0-1.24,0.1-1.85,0.05l-2.05-0.13
				c-7.15-0.76-13.64-4.54-17.84-10.38c-0.61-0.85-1.13-1.79-1.69-2.72l-0.69-1.48c-0.25-0.49-0.47-1.01-0.65-1.54
				c-0.81-2.16-1.32-4.42-1.53-6.71c-0.84-10.56,4.95-20.53,14.53-25c2.47-1.08,5.08-1.8,7.75-2.13c0.65-0.1,1.31-0.07,1.98-0.12
				h0.98c0.34,0,0.66,0,0.98,0.05c0.65,0.04,1.31,0.07,1.94,0.15l1.91,0.34c2.47,0.51,4.86,1.39,7.06,2.62l0.82,0.44l0.76,0.51
				l1.51,1.03l1.38,1.16c0.22,0.2,0.46,0.38,0.67,0.59l0.61,0.64l1.21,1.27l1.06,1.39l0.52,0.67c0.17,0.23,0.31,0.48,0.45,0.72
				l0.89,1.45c0.51,0.99,0.97,2,1.39,2.99c0.18,0.52,0.34,1.03,0.52,1.54c0.19,0.5,0.33,1.01,0.44,1.53
				c0.12,0.52,0.23,1.02,0.34,1.54c0.12,0.51,0.15,1.01,0.21,1.51c0.12,0.99,0.19,1.98,0.19,2.97c-0.02,1.87-0.23,3.74-0.65,5.57
				c-1.28,5.51-4.38,10.42-8.81,13.94c-0.68,0.56-1.4,1.07-2.15,1.54c-0.54,0.34-1.1,0.66-1.67,0.93l-1.06,0.52L602.64,295.05z"/>
			<path class="st8" d="M594.55,271.77c2.4-1.07,3.93-3.45,3.91-6.08c0.2-3.4-2.38-6.33-5.79-6.53c-3.39-0.2-6.32,2.39-6.52,5.8
				c-0.01,0.22-0.02,0.44-0.01,0.67c-0.05,2.65,1.49,5.09,3.92,6.14c-9.5,1.43-9.04,11.72-9.04,11.72l22.39,0.1
				C603.42,283.6,603.93,273.19,594.55,271.77z"/>
			<path class="st7" d="M572.53,257.14c-0.08,0.1-4.12-2.97-9.02-6.85s-8.8-7.13-8.72-7.24s4.12,2.97,9.02,6.85
				C568.7,253.79,572.61,257.03,572.53,257.14z"/>
			<path class="st1" d="M363.32,96.79c-13.71,1.12-25.73-9.11-26.85-22.85s9.09-25.78,22.8-26.9c13.71-1.12,25.73,9.11,26.85,22.85
				c0.12,1.35,0.12,2.71,0,4.05C385.12,86.11,375.48,95.77,363.32,96.79z"/>
			<path class="st9" d="M363.32,96.79c-13.71,1.12-25.73-9.11-26.85-22.85s9.09-25.78,22.8-26.9c13.71-1.12,25.73,9.11,26.85,22.85
				c0.12,1.35,0.12,2.71,0,4.05C385.12,86.11,375.48,95.77,363.32,96.79z"/>
			<path class="st7" d="M363.32,96.79c0.13-0.04,0.27-0.06,0.4-0.07l1.18-0.18c0.63-0.08,1.25-0.21,1.85-0.38
				c0.85-0.19,1.69-0.44,2.51-0.74c7.08-2.51,12.68-8.05,15.26-15.12c0.33-0.91,0.59-1.84,0.81-2.78c0.1-0.48,0.23-0.93,0.31-1.47
				l0.19-1.53c0.06-0.51,0.1-1.04,0.1-1.56v-1.59c-0.05-1.07-0.15-2.16-0.28-3.24l-0.34-1.63c-0.05-0.27-0.1-0.55-0.18-0.82
				l-0.26-0.81c-0.17-0.54-0.34-1.07-0.52-1.62l-0.64-1.65l-0.35-0.8c-0.13-0.26-0.28-0.51-0.43-0.76L382,58.49
				c-0.35-0.48-0.69-0.93-1.05-1.45l-0.54-0.74l-0.61-0.67c-1.62-1.87-3.52-3.49-5.63-4.79l-1.65-0.93
				c-0.57-0.28-1.16-0.53-1.75-0.79c-0.29-0.13-0.58-0.27-0.93-0.38l-0.93-0.29c-0.62-0.18-1.22-0.43-1.85-0.55
				c-2.58-0.59-5.22-0.81-7.86-0.63c-5.19,0.46-10.12,2.56-14.06,5.97c-3.68,3.21-6.34,7.43-7.67,12.14
				c-0.58,2.19-0.87,4.45-0.85,6.72c-0.02,0.54,0.01,1.09,0.07,1.63l0.14,1.61c0.2,1.05,0.37,2.09,0.64,3.08
				c1.03,3.71,2.9,7.14,5.46,10.02c2.12,2.36,4.65,4.32,7.49,5.74l1.85,0.83c0.59,0.26,1.2,0.41,1.77,0.6
				c1.04,0.34,2.1,0.6,3.18,0.79c1.49,0.26,3,0.38,4.52,0.36h1.19c0.13-0.02,0.27-0.02,0.4,0c-0.13,0.01-0.27,0.01-0.4,0l-1.19,0.05
				c-2.62,0.11-5.25-0.24-7.77-1.02c-0.58-0.2-1.2-0.34-1.8-0.59l-1.85-0.83c-6.46-3.16-11.26-8.94-13.21-15.88
				c-0.28-1.01-0.45-2.07-0.66-3.14l-0.15-1.63c-0.07-0.55-0.1-1.11-0.08-1.66c-0.02-2.31,0.27-4.6,0.85-6.84
				c2.83-10.22,11.7-17.6,22.24-18.49c2.68-0.18,5.38,0.04,8.01,0.65c0.66,0.13,1.27,0.38,1.85,0.57l0.93,0.29
				c0.31,0.12,0.6,0.26,0.93,0.39c0.59,0.27,1.2,0.52,1.78,0.81l1.65,1.01c2.15,1.32,4.08,2.97,5.73,4.88l0.62,0.69l0.54,0.75
				l1.06,1.48c0.31,0.52,0.6,1.05,0.93,1.56c0.15,0.27,0.31,0.52,0.43,0.78l0.36,0.82l0.7,1.62c0.18,0.55,0.35,1.11,0.52,1.66
				l0.26,0.82c0.07,0.28,0.12,0.55,0.18,0.83l0.34,1.66c0.14,1.1,0.23,2.21,0.28,3.29c0,0.54,0,1.07,0,1.62
				c0.01,0.52-0.03,1.06-0.1,1.58c-0.07,0.52-0.14,1.04-0.2,1.55c-0.07,0.51-0.21,1-0.31,1.51c-0.23,0.97-0.51,1.92-0.83,2.86
				c-0.66,1.75-1.5,3.43-2.51,4.99c-1.75,2.72-4.01,5.07-6.65,6.93c-1.99,1.4-4.18,2.5-6.49,3.28c-0.83,0.28-1.68,0.51-2.55,0.69
				c-0.63,0.16-1.26,0.28-1.9,0.34l-1.18,0.13C363.58,96.78,363.45,96.79,363.32,96.79z"/>
			<path class="st8" d="M363.62,72.25c2.4-1.07,3.93-3.45,3.91-6.08c0.25-3.4-2.31-6.37-5.71-6.61c-3.39-0.25-6.35,2.32-6.59,5.73
				c-0.03,0.28-0.03,0.55-0.01,0.83c-0.05,2.65,1.5,5.07,3.92,6.14c-9.47,1.43-9.04,11.75-9.04,11.75l22.39,0.1
				C372.5,84.11,373.03,73.66,363.62,72.25z"/>
			<path class="st7" d="M401.89,109.86c-0.1,0.1-5.56-4.24-12.14-9.7c-6.57-5.46-11.92-9.97-11.84-10.07
				c0.08-0.1,5.51,4.24,12.14,9.7C396.67,105.25,401.97,109.78,401.89,109.86z"/>
			<path class="st1" d="M525.05,66.23c-9.89,0.81-18.56-6.56-19.38-16.47s6.55-18.6,16.44-19.41c9.89-0.81,18.56,6.56,19.38,16.47
				c0.08,0.98,0.08,1.96,0,2.95C540.76,58.54,533.8,65.5,525.05,66.23z"/>
			<path class="st9" d="M525.05,66.23c-9.89,0.81-18.56-6.56-19.38-16.47s6.55-18.6,16.44-19.41c9.89-0.81,18.56,6.56,19.38,16.47
				c0.08,0.98,0.08,1.96,0,2.95C540.76,58.54,533.8,65.5,525.05,66.23z"/>
			<path class="st7" d="M525.05,66.23c0.1-0.03,0.19-0.05,0.28-0.05l0.84-0.14c0.46-0.06,0.91-0.16,1.36-0.28
				c0.61-0.12,1.21-0.27,1.81-0.45c5.09-1.83,9.1-5.82,10.97-10.9c0.47-1.36,0.78-2.77,0.93-4.2c0.33-3.16-0.21-6.36-1.55-9.23
				c-0.35-0.76-0.75-1.51-1.2-2.23l-0.76-1.04l-0.38-0.53l-0.43-0.48c-1.17-1.34-2.53-2.5-4.06-3.44c-1.57-0.96-3.28-1.69-5.07-2.13
				c-1.85-0.44-3.76-0.59-5.65-0.45c-9.76,0.8-17.04,9.38-16.25,19.16c0.31,3.87,1.89,7.54,4.48,10.43
				c1.52,1.69,3.32,3.08,5.34,4.11l1.32,0.6c0.43,0.19,0.87,0.28,1.28,0.44c0.75,0.25,1.52,0.44,2.29,0.57
				c1.07,0.19,2.16,0.28,3.25,0.28h0.85H525h-0.28h-0.86c-1.9,0.08-3.79-0.16-5.6-0.72c-0.42-0.14-0.86-0.24-1.31-0.43l-1.36-0.59
				c-2.09-1.02-3.99-2.43-5.56-4.15c-1.9-2.1-3.29-4.6-4.05-7.32c-2.65-9.72,3.07-19.76,12.76-22.41c1.06-0.29,2.16-0.49,3.27-0.59
				c1.94-0.13,3.9,0.04,5.8,0.48c1.87,0.48,3.66,1.24,5.29,2.27c1.55,0.96,2.96,2.16,4.16,3.54l0.44,0.51l0.4,0.54l0.77,1.07
				c0.45,0.74,0.86,1.5,1.22,2.28c1.98,4.33,2.17,9.27,0.55,13.74c-1.89,5.18-6.02,9.21-11.24,10.96c-0.61,0.2-1.22,0.37-1.85,0.51
				c-0.45,0.11-0.91,0.19-1.36,0.23l-0.85,0.08C525.24,66.26,525.14,66.25,525.05,66.23z"/>
			<path class="st8" d="M525.24,48.59c1.72-0.77,2.81-2.49,2.77-4.39c0.18-2.46-1.67-4.58-4.13-4.75c-2.45-0.18-4.57,1.68-4.74,4.14
				c-0.01,0.19-0.02,0.38-0.01,0.57c-0.04,1.93,1.11,3.68,2.87,4.43c-6.83,1.03-6.49,8.46-6.49,8.46l16.14,0.08
				C531.69,57.14,532.02,49.65,525.24,48.59z"/>
			<path class="st7" d="M518.87,65.68c-0.9,2.69-1.95,5.34-3.15,7.91c-1.05,2.64-2.26,5.21-3.61,7.72c0.91-2.69,1.97-5.34,3.17-7.91
				C516.32,70.76,517.53,68.19,518.87,65.68z"/>
			<path class="st1" d="M612,169.89c-12.7,1.04-23.83-8.43-24.87-21.16c-1.04-12.72,8.42-23.88,21.11-24.92
				c12.7-1.04,23.83,8.43,24.87,21.16c0.1,1.25,0.1,2.51,0,3.76C632.18,160.01,623.25,168.96,612,169.89z"/>
			<path class="st9" d="M612,169.89c-12.7,1.04-23.83-8.43-24.87-21.16c-1.04-12.72,8.42-23.88,21.11-24.92
				c12.7-1.04,23.83,8.43,24.87,21.16c0.1,1.25,0.1,2.51,0,3.76C632.18,160.01,623.25,168.96,612,169.89z"/>
			<path class="st7" d="M612,169.89c0.12-0.04,0.24-0.06,0.36-0.07l1.08-0.16c0.59-0.08,1.17-0.2,1.75-0.36
				c0.79-0.18,1.57-0.4,2.32-0.67c2.09-0.75,4.06-1.78,5.87-3.07c5.36-3.82,8.81-9.77,9.46-16.33c0.42-4.07-0.27-8.18-1.98-11.89
				l-0.34-0.75c-0.12-0.24-0.26-0.48-0.4-0.7l-0.82-1.42l-0.97-1.39l-0.49-0.67l-0.57-0.62c-1.51-1.74-3.26-3.23-5.23-4.43
				c-2-1.26-4.19-2.2-6.49-2.78c-2.38-0.55-4.83-0.75-7.27-0.59c-9.56,0.84-17.6,7.53-20.18,16.79c-0.54,2.02-0.81,4.11-0.8,6.21
				c-0.02,0.51,0.01,1.01,0.07,1.51c0,0.51,0.08,0.99,0.12,1.48c0.19,0.93,0.34,1.94,0.59,2.86c0.95,3.44,2.68,6.61,5.05,9.29
				c1.96,2.19,4.31,4,6.93,5.31l1.7,0.77c0.55,0.24,1.13,0.38,1.64,0.57c0.97,0.31,1.95,0.55,2.94,0.72
				c1.38,0.25,2.78,0.36,4.19,0.34h1.1h0.38h-0.38l-1.1,0.04c-1.41,0.06-2.82-0.03-4.22-0.25c-1.01-0.16-2-0.39-2.99-0.69
				c-0.53-0.19-1.1-0.31-1.66-0.55l-1.75-0.75c-2.67-1.32-5.06-3.13-7.06-5.35c-2.43-2.69-4.21-5.9-5.19-9.39
				c-0.25-0.93-0.42-1.92-0.61-2.9c-0.04-0.49-0.1-1-0.14-1.51c-0.05-0.51-0.08-1.02-0.07-1.54c-0.01-2.14,0.25-4.27,0.79-6.33
				c2.61-9.46,10.82-16.3,20.58-17.15c2.49-0.16,4.98,0.04,7.42,0.6c2.35,0.59,4.6,1.53,6.66,2.78c1.99,1.23,3.79,2.75,5.32,4.53
				l0.58,0.64l0.51,0.69l0.99,1.37c0.28,0.48,0.55,0.98,0.83,1.45c0.13,0.24,0.28,0.48,0.4,0.72l0.34,0.76
				c1.75,3.78,2.43,7.98,1.98,12.13c-0.97,9.01-7.1,16.62-15.66,19.5c-0.76,0.27-1.55,0.48-2.35,0.64
				c-0.58,0.14-1.17,0.25-1.76,0.31l-1.1,0.12L612,169.89z"/>
			<path class="st8" d="M612.26,147.24c2.23-0.98,3.65-3.2,3.62-5.64c0.19-3.15-2.2-5.87-5.34-6.06c-3.15-0.2-5.86,2.2-6.05,5.35
				c-0.01,0.22-0.02,0.44-0.01,0.65c-0.05,2.46,1.38,4.71,3.63,5.69c-8.77,1.32-8.34,10.89-8.34,10.89l20.74,0.1
				C620.52,158.21,620.96,148.56,612.26,147.24z"/>
			<path class="st7" d="M587.74,152.53c-1.81,0.72-3.66,1.28-5.56,1.68c-1.84,0.56-3.73,0.97-5.64,1.22
				c1.81-0.72,3.66-1.28,5.56-1.68C583.95,153.18,585.83,152.77,587.74,152.53z"/>
		</g>
		<g id="freepik--Character--inject-36">
			<path class="st8" d="M314.44,412.83l-14.6,19.22l-7.15,18.5c-0.49,1.27-1.91,1.9-3.18,1.41c-0.05-0.03-0.11-0.04-0.16-0.07l0,0
				c-0.73-0.33-1.24-0.99-1.38-1.78c-0.93-5.03-4.16-23.5-3-24.83c1.32-1.56,14.03-21.27,14.03-21.27L314.44,412.83z"/>
			<g class="st10">
				<path class="st2" d="M289.38,451.87l-3.44-27.94l-0.6,0.83c-0.52,0.72-0.76,1.59-0.69,2.47c0.18,2.35,0.82,8.84,3.28,22.81
					c0.13,0.83,0.68,1.53,1.44,1.86L289.38,451.87z"/>
			</g>
			<g class="st10">
				<path class="st2" d="M294.51,420.54c0.26,0.74-0.1,1.55-0.82,1.86c-0.74,0.29-1.56-0.06-1.85-0.79
					c-0.24-0.76,0.13-1.6,0.87-1.92c0.78-0.2,1.57,0.26,1.79,1.03"/>
			</g>
			<path class="st7" d="M291.1,440.11c0.9-0.27,1.84-0.36,2.77-0.28c0.92,0.24,1.79,0.65,2.56,1.21c0.04,0-0.08-0.37-0.49-0.77
				c-0.56-0.49-1.24-0.81-1.98-0.93c-0.74-0.13-1.49-0.04-2.18,0.25C291.3,439.8,291.06,440.07,291.1,440.11z"/>
			<path class="st7" d="M290.57,443.73c0.79,0.1,1.57,0.23,2.34,0.42c1.22,0.42,1.96,1.23,2.07,1.13c0.12-0.11-0.51-1.15-1.85-1.63
				C292.32,443.26,291.36,443.3,290.57,443.73z"/>
			<path class="st7" d="M290.94,434.89c1.22,0.04,2.45,0.18,3.64,0.4c1.17,0.39,2.3,0.85,3.41,1.4c-0.82-1.01-1.97-1.7-3.24-1.94
				C293.5,434.35,292.15,434.39,290.94,434.89z"/>
			<path class="st7" d="M294.89,428.68c0,0.15,1.36,0.48,2.77,1.45c1.42,0.96,2.29,2.11,2.43,2.02c-0.4-1.04-1.14-1.91-2.1-2.46
				C297.11,429,296,428.64,294.89,428.68z"/>
			<path class="st7" d="M299.02,422.94c1.05,0.34,2.05,0.83,2.97,1.44c0.82,0.74,1.53,1.59,2.11,2.52c0.05,0,0-0.42-0.24-1
				c-0.35-0.76-0.89-1.42-1.55-1.94c-0.66-0.52-1.44-0.87-2.26-1.04C299.41,422.82,299.02,422.88,299.02,422.94z"/>
			<path class="st7" d="M302.74,423.26c0,0,0.26-0.21,0.57-0.72c0.42-0.73,0.69-1.53,0.81-2.35c0.14-0.59,0.07-1.23-0.19-1.79
				c-0.21-0.36-0.62-0.55-1.03-0.48c-0.38,0.1-0.71,0.34-0.93,0.66c-0.89,1.42-0.64,3.27,0.58,4.41c1.22,1.09,2.99,1.34,4.46,0.62
				c0.37-0.19,0.65-0.52,0.74-0.93c0.06-0.42-0.15-0.83-0.53-1.01c-0.55-0.24-1.16-0.33-1.76-0.26c-0.84,0.04-1.66,0.22-2.43,0.55
				c-0.55,0.23-0.81,0.43-0.79,0.45c1.02-0.34,2.08-0.53,3.15-0.57c0.52-0.04,1.05,0.05,1.53,0.27c0.2,0.1,0.33,0.32,0.28,0.55
				c-0.08,0.26-0.27,0.46-0.52,0.57c-1.28,0.59-2.79,0.36-3.85-0.58c-1.02-0.96-1.24-2.49-0.55-3.71c0.14-0.23,0.37-0.4,0.64-0.48
				c0.22-0.05,0.46,0.05,0.58,0.25c0.22,0.47,0.28,1,0.19,1.51C303.55,421.27,303.22,422.31,302.74,423.26z"/>
			<path class="st8" d="M329.61,423.07l1.48,19.6c0,0-19.46,6.67-19.46,10.32l38.07-0.08l-1.05-30.64L329.61,423.07z"/>
			<g class="st10">
				<path class="st2" d="M342.78,440.55c0.76,0.2,1.26,0.95,1.15,1.73c-0.18,0.77-0.92,1.28-1.7,1.15c-0.82-0.21-1.34-1.02-1.2-1.86
					c0.26-0.8,1.1-1.23,1.9-1"/>
			</g>
			<g class="st10">
				<path class="st2" d="M349.66,452.9l-0.12-3.09l-36.73,1.37c-0.78,0.42-1.31,1.21-1.39,2.09L349.66,452.9z"/>
			</g>
			<path class="st7" d="M330.46,442.5c0,0.19,0.93,0.23,1.85,0.8c0.93,0.57,1.45,1.31,1.62,1.24c0.17-0.07-0.15-1.15-1.29-1.81
				C331.5,442.08,330.42,442.34,330.46,442.5z"/>
			<path class="st7" d="M326.54,444.31c0,0.19,0.78,0.46,1.44,1.23c0.66,0.77,0.87,1.59,1.05,1.57c0.19-0.02,0.27-1.07-0.58-2.01
				S326.54,444.11,326.54,444.31z"/>
			<path class="st7" d="M324.47,449.18c0.17,0,0.39-0.93-0.13-1.86c-0.52-0.93-1.4-1.37-1.47-1.22c-0.07,0.16,0.49,0.69,0.93,1.51
				C324.22,448.45,324.28,449.18,324.47,449.18z"/>
			<path class="st7" d="M330.62,438c0.08,0.17,0.93-0.13,1.98-0.1s1.85,0.33,1.98,0.16s-0.72-0.79-1.97-0.81
				C331.36,437.23,330.53,437.86,330.62,438z"/>
			<g class="st6">
				<polygon points="329.91,426.95 330.17,430.44 348.85,429.54 348.76,426.37 				"/>
			</g>
			<path class="st7" d="M330.42,434.04c0.63,0.15,1.28,0.12,1.9-0.08c0.68-0.14,1.35-0.38,1.98-0.69c0.37-0.18,0.73-0.39,1.06-0.62
				c0.21-0.13,0.4-0.28,0.57-0.48c0.24-0.28,0.26-0.69,0.04-0.99c-0.2-0.25-0.51-0.4-0.83-0.39c-0.25,0.01-0.49,0.05-0.72,0.13
				c-0.4,0.12-0.8,0.27-1.17,0.45c-0.63,0.31-1.2,0.72-1.7,1.23c-0.85,0.84-1.13,1.56-1.06,1.59c0.07,0.03,0.49-0.54,1.36-1.25
				c0.51-0.42,1.06-0.75,1.66-1.02c0.35-0.16,0.7-0.28,1.07-0.38c0.4-0.13,0.74-0.14,0.85,0s0,0.1,0,0.21
				c-0.12,0.13-0.27,0.25-0.42,0.34c-0.31,0.22-0.65,0.44-0.98,0.61c-0.58,0.33-1.21,0.59-1.85,0.78
				C331.58,433.61,330.99,433.81,330.42,434.04z"/>
			<path class="st7" d="M330.65,434.29c0.34-0.56,0.49-1.21,0.43-1.86c0.01-0.7-0.11-1.41-0.34-2.08c-0.14-0.39-0.31-0.77-0.53-1.13
				c-0.22-0.51-0.7-0.86-1.25-0.93c-0.35,0.03-0.65,0.25-0.78,0.57c-0.08,0.23-0.14,0.46-0.17,0.7c-0.04,0.43-0.03,0.86,0.05,1.28
				c0.14,0.72,0.46,1.39,0.93,1.94c0.78,0.93,1.57,1.15,1.58,1.08c0.01-0.07-0.6-0.43-1.2-1.36c-0.35-0.53-0.58-1.13-0.67-1.77
				c-0.05-0.36-0.05-0.74,0-1.1c0-0.41,0.19-0.75,0.34-0.7c0.15,0.04,0.53,0.28,0.69,0.59c0.2,0.33,0.37,0.67,0.51,1.02
				c0.23,0.59,0.39,1.22,0.44,1.86C330.73,433.56,330.55,434.27,330.65,434.29z"/>
			<path class="st7" d="M317.29,255.36c0,0-8.96,17.21-8.96,31.16c0,2.95,18.18,149.09,18.18,149.09l25.73-2.16l-12.48-135.04
				l4.04-27.44L317.29,255.36z"/>
			<path class="st7" d="M374.58,270.62c0,0-6.02,50.32-8.82,69.71c-2.96,20.3-8.76,24.14-8.76,24.14l-51.26,64.99l-16.84-15
				l44.14-66.48c0,0,9.36-79.35,8.98-77.38C341.62,272.59,374.58,270.62,374.58,270.62z"/>
			<path class="st5" d="M356.08,365.31c-0.12,0.22-0.27,0.44-0.43,0.62l-1.32,1.7l-4.89,6.3l-15.93,20.91
				c-6.22,8.2-11.89,15.56-16.07,20.83c-2.09,2.64-3.81,4.75-5.01,6.19l-1.41,1.66c-0.15,0.2-0.33,0.38-0.51,0.55
				c0.12-0.22,0.27-0.44,0.43-0.62l1.32-1.7l4.88-6.3l15.95-20.92c6.21-8.18,11.88-15.56,16.06-20.83c2.09-2.64,3.81-4.75,5.01-6.19
				l1.41-1.66C355.72,365.66,355.9,365.48,356.08,365.31z"/>
			<path class="st5" d="M346.73,288.13c0.07,0.13-2.28,1.6-4.88,3.8c-2.6,2.2-4.46,4.26-4.57,4.16c0.29-0.54,0.66-1.03,1.1-1.46
				c0.97-1.1,2.04-2.13,3.15-3.07c1.13-0.95,2.31-1.81,3.56-2.59C345.59,288.61,346.14,288.33,346.73,288.13z"/>
			<path class="st5" d="M337.48,295.78c-2.11-0.24-4.01-1.4-5.19-3.16c0.1-0.1,1.07,0.89,2.51,1.75
				C336.22,295.22,337.51,295.63,337.48,295.78z"/>
			<path class="st5" d="M372.55,284.01c0,0.14-2.53-0.18-5.66-0.34c-3.13-0.16-5.65-0.16-5.66-0.29c1.88-0.31,3.79-0.37,5.69-0.19
				C368.83,283.2,370.72,283.48,372.55,284.01z"/>
			<path class="st5" d="M338.64,300.08c0.01,0.07,0.01,0.15,0,0.22l-0.05,0.67c-0.07,0.62-0.15,1.48-0.26,2.57
				c-0.24,2.27-0.59,5.49-1.03,9.45c-0.93,8-2.19,18.98-3.58,31.13c-0.16,1.34-0.31,2.65-0.46,3.9v0.05v0.04l-15.88,23.9l-4.83,7.1
				l-1.31,1.9c-0.15,0.2-0.26,0.36-0.35,0.49c-0.04,0.05-0.09,0.12-0.14,0.16c0.03-0.07,0.06-0.13,0.1-0.19l0.31-0.51l1.24-1.96
				l4.63-7.19l15.75-23.97v0.1c0.14-1.24,0.29-2.57,0.45-3.9c1.45-12.14,2.77-23.12,3.7-31.13c0.49-3.95,0.93-7.17,1.18-9.42
				c0.15-1.07,0.26-1.94,0.35-2.57c0-0.26,0.07-0.48,0.1-0.66C338.58,300.23,338.61,300.15,338.64,300.08z"/>
			<path class="st5" d="M327.17,174.61c0,0-8.99,5.42-11.7,10.21c-2.7,4.79-17.12,37.22-16.51,42.96c0.6,5.74,14.1,12.08,14.1,12.08
				l14.1-18.33l-8.39-5.71l8.39-10.52L327.17,174.61L327.17,174.61z"/>
			<path class="st5" d="M341.7,169.94l-14.53,4.64c0,0-6.6,62.8-9.9,71.82c-3.3,9.01-7.25,21.64-7.25,21.64s4.87,15.48,25.27,17.89
				c20.4,2.41,40.63-10.1,40.63-10.1s6.65-29.08,10.25-55.53c3.6-26.45,0.93-42.19,0.93-42.19l-22.87-8.83L341.7,169.94z"/>
			<path class="st5" d="M313.08,239.85c0,0,32.67,6.5,44.53-7.55l-3.44-11.95c0,0-21.57,5.11-28.33,2.92L313.08,239.85z"/>
			<path class="st11" d="M357.06,218.58c0,0,6.09-12.08,6.74-12.18c0.66-0.12,10.25-3.52,10.25-3.52c0.28,0.78,0.28,1.64,0,2.42
				l3.44,0.44c0,0-0.51,2.13-1.68,2.42l1.25,1.1c-0.62,0.83-1.43,1.51-2.35,1.99c-0.72,0.36-1.55,0.36-2.27,0
				c0,0,0.43,0.8-1.53,2.04c-1.98,1.24-5.95,7.02-5.95,7.02L357.06,218.58z"/>
			<path class="st12" d="M373.74,205.33c-2.02,0.98-4.12,1.79-6.27,2.45c-0.87,0.31-1.75,0.55-2.44,0.89
				c-0.6,0.29-1.11,0.77-1.43,1.37c-0.58,1.03-0.79,1.78-0.87,1.75c0.04-0.67,0.22-1.34,0.55-1.94c0.33-0.69,0.86-1.26,1.53-1.62
				c0.81-0.36,1.63-0.67,2.47-0.93C369.39,206.48,371.54,205.83,373.74,205.33z"/>
			<path class="st12" d="M375.97,208.15c-0.53,0.32-1.12,0.53-1.73,0.63c-1.1,0.29-2.65,0.55-4.29,0.99
				c-1.4,0.36-2.72,0.99-3.88,1.86c-0.87,0.67-1.27,1.27-1.34,1.23c0.21-0.59,0.59-1.12,1.1-1.51c1.14-0.99,2.52-1.7,3.99-2.05
				c1.69-0.45,3.24-0.65,4.35-0.85C374.76,208.3,375.36,208.2,375.97,208.15z"/>
			<path class="st13" d="M367.19,213.22c0.57-0.76,1.37-1.31,2.29-1.56c0.87-0.41,1.85-0.5,2.77-0.25c0,0.15-1.2,0.24-2.59,0.75
				C368.3,212.65,367.28,213.35,367.19,213.22z"/>
			<path class="st5" d="M381.82,177.73c-0.86,0.25-6.67,7.99-9.67,18.21c-2.99,10.21-6.3,20.73-6.3,20.73l-0.93,3.63l-37.06-9.07
				l-8.26,11.07c0,0,23.99,20.91,41.69,21.69c8.79-0.77,16.69-5.67,21.31-13.2c7.8-12.92,12.6-28.85,12.6-28.85
				S394.7,173.93,381.82,177.73z"/>
			<path class="st7" d="M326.1,202.48c0.1-1.72,0.37-3.43,0.81-5.1c0.27-1.7,0.71-3.37,1.31-4.99c-0.1,1.72-0.37,3.43-0.81,5.1
				C327.15,199.19,326.7,200.86,326.1,202.48z"/>
			<g class="st6">
				<path d="M351.79,242.24c-1.94-0.82-3.79-1.92-5.87-2.24c-2.52-0.38-4.63,0.37-7.15,0.76c-7.51,1.18-13.1,0.28-20.2,0l-0.38,2.18
					c3.11,2.43,7.03,3.21,10.98,3.14c3.59-0.07,7.11-1.23,10.69-1.13c2.84,0.22,5.63,0.79,8.34,1.67c4.57,1.21,9.34,1.96,14.01,1.25
					c11.75-1.78,18.04-12.71,20-17.03c-1.56,2.13-3.23,4.18-5.01,6.14C369.71,244.75,358,244.86,351.79,242.24z"/>
			</g>
			<path class="st2" d="M359.68,209.48c-1.58-0.28-3.13-0.7-4.63-1.27c-1.55-0.43-3.06-1-4.49-1.72c1.58,0.27,3.14,0.68,4.63,1.27
				C356.75,208.17,358.25,208.74,359.68,209.48z"/>
			<path class="st7" d="M387.92,220.8c-0.01,0.07-0.03,0.14-0.04,0.21c-0.05,0.17-0.12,0.37-0.2,0.61c-0.29,0.78-0.63,1.54-1,2.27
				c-1.41,2.69-3.03,5.27-4.85,7.71c-1.14,1.55-2.45,3.21-3.95,4.89c-0.76,0.84-1.58,1.68-2.47,2.51c-0.96,0.81-2.03,1.49-3.17,2.02
				c-2.42,1.15-4.97,1.97-7.6,2.47c-2.84,0.51-5.75,0.48-8.59-0.1c-2.81-0.59-5.54-1.46-8.16-2.61c-1.29-0.48-2.51-1.11-3.7-1.65
				c-1.2-0.54-2.37-1.17-3.47-1.78c-3.95-2.16-7.77-4.57-11.41-7.21c-3.11-2.24-5.56-4.21-7.16-5.57c-0.82-0.69-1.44-1.25-1.85-1.63
				c-0.22-0.19-0.43-0.39-0.61-0.61c0.06,0.04,0.12,0.08,0.18,0.13l0.51,0.41l1.91,1.57c1.67,1.34,4.11,3.26,7.25,5.46
				c3.66,2.59,7.47,4.96,11.41,7.09c1.13,0.6,2.28,1.17,3.46,1.75c1.19,0.59,2.42,1.15,3.7,1.63c2.6,1.13,5.31,1.98,8.08,2.57
				c2.77,0.56,5.62,0.59,8.4,0.1c2.6-0.48,5.1-1.28,7.5-2.4c1.11-0.51,2.14-1.15,3.07-1.94c0.89-0.8,1.69-1.62,2.45-2.46
				c1.51-1.66,2.83-3.29,3.97-4.83c1.83-2.41,3.49-4.95,4.95-7.59c0.51-0.93,0.85-1.7,1.07-2.22c0.1-0.23,0.18-0.43,0.25-0.59
				C387.86,220.96,387.89,220.88,387.92,220.8z"/>
			<path class="st7" d="M373.96,190.13c-0.04,0.2-0.08,0.42-0.14,0.61l-0.48,1.75c-0.44,1.56-1.07,3.71-1.85,6.43
				c-1.61,5.48-3.83,13-6.32,21.45l-0.07,0.22l-0.25-0.07c-0.89-0.22-1.93-0.44-2.94-0.66c-9.31-2-17.72-3.95-23.75-5.57
				c-3.02-0.79-5.45-1.49-7.12-2l-1.91-0.61c-0.23-0.06-0.44-0.14-0.66-0.25c0.23,0.03,0.46,0.08,0.69,0.16l1.94,0.53
				c1.68,0.44,4.12,1.1,7.15,1.86c6.05,1.51,14.47,3.41,23.77,5.41c1.03,0.23,2,0.43,3,0.69l-0.31,0.16
				c2.55-8.43,4.82-15.96,6.49-21.42l1.98-6.39c0.23-0.72,0.42-1.28,0.57-1.72C373.79,190.51,373.86,190.32,373.96,190.13z"/>
			<path class="st7" d="M320.81,222.1l-10.56,0.39c-1.05,0-2.04-0.93-2.48-2.44l-8.28-29.03c-0.52-2.01,0.59-3.62,2.39-3.71
				l13.96-0.87c2.24,0,3.44,0.93,3.85,2.66l5.44,22.98C326.28,216.92,324.11,221.98,320.81,222.1z"/>
			<path class="st11" d="M329.84,208.39l-2.77-5.97l-4.63-1.54l1.41,5.69c-1.85,0.87-4.53,1.32-6.1,0.46
				c-1.57-0.86-7.69-6.97-8.85-6.39c-1.16,0.59-2.19,1.99-1.13,3.33c1.05,1.34,6.8,5.5,5.62,6.73c-1.19,1.23-7.8-4.16-9.75-3.76
				c-1.94,0.4-3.14,1.54-2.05,2.37c1.08,0.83,3.7,3.5,4.22,4.64c-0.12,1.46-0.81,3.54-0.17,3.9c1.56,0.75,3.19,1.31,4.87,1.7
				c1.73,0.53,3.43,1.15,5.09,1.86c2.55,1.04,5.4,1.1,7.98,0.19l1.32-0.46c2.06-0.72,3.43-2.69,3.41-4.87l-0.04-4.39L329.84,208.39z
				"/>
			<path class="st5" d="M322.75,207.02c-0.19-0.45-0.34-0.92-0.44-1.4l-1.05-3.84c-0.43-1.66-0.93-3.61-1.49-5.75
				c-0.28-1.08-0.57-2.22-0.86-3.4c-0.34-1.15-0.46-2.49-1.27-3.37c-0.81-0.88-2.18-0.93-3.35-0.86l-3.48,0.27l-5.92,0.42
				l-3.99,0.25c-0.49,0.04-0.98,0.04-1.47,0c0.48-0.11,0.97-0.18,1.45-0.21l3.99-0.39l5.91-0.53l3.49-0.29
				c0.62-0.04,1.24-0.01,1.85,0.08c0.7,0.1,1.36,0.43,1.85,0.93c0.44,0.51,0.76,1.12,0.93,1.78c0.18,0.62,0.31,1.22,0.46,1.81
				l0.83,3.41c0.52,2.16,0.98,4.1,1.39,5.77l0.93,3.91C322.65,206.07,322.72,206.55,322.75,207.02z"/>
			<path class="st2" d="M310.04,192.98c0,0.58-0.46,1.04-1.04,1.04c-0.58,0-1.04-0.46-1.04-1.04c0-0.58,0.46-1.04,1.04-1.04l0,0
				C309.57,191.95,310.04,192.41,310.04,192.98z"/>
			<path class="st7" d="M365.11,151.02c0.93-3.6,1.55-7.29,1.85-11c0.29-3.73-0.35-7.47-1.85-10.89c-0.24-0.51-2.22-3.89-2.77-3.79
				c-0.4,0.07,0.93,3.28,0.76,3.65c-1.52,3.57-1.93,7.51-1.17,11.31c0.66,3.68,1.74,7.28,3.21,10.73"/>
			<path class="st11" d="M364.03,137.07c0.4-9.71-4.91-18.05-14.62-18.17h-0.93c-9.01,0.41-16.2,7.68-16.55,16.71
				c-0.29,8.43-0.52,17.73-0.26,22.24c0.54,9.29,9.91,10.34,9.91,10.34l0.1,3.19c0.19,6.23,5.4,11.13,11.62,10.95
				c0.3-0.01,0.61-0.04,0.91-0.07l0,0c5.73-0.65,10.06-5.52,10.02-11.31L364.03,137.07z"/>
			<path class="st12" d="M341.59,168.26c4.31-0.11,8.48-1.5,11.99-4c0,0-2.56,6.85-11.88,6.42L341.59,168.26z"/>
			<path class="st7" d="M335.43,142.89c0.03,0.72,0.61,1.3,1.34,1.28c0.69,0.03,1.28-0.51,1.31-1.21c0-0.02,0-0.04,0-0.05
				c-0.03-0.72-0.61-1.3-1.34-1.3c-0.7-0.03-1.29,0.52-1.31,1.23C335.43,142.87,335.43,142.88,335.43,142.89z"/>
			<path class="st7" d="M334,139.68c0.18,0.17,1.15-0.62,2.58-0.69c1.43-0.07,2.51,0.6,2.66,0.43c0.15-0.18-0.12-0.39-0.58-0.7
				c-0.64-0.4-1.38-0.59-2.13-0.55s-1.46,0.29-2.05,0.76C334.06,139.28,333.92,139.58,334,139.68z"/>
			<path class="st7" d="M348.21,142.31c0.03,0.72,0.61,1.3,1.34,1.28c0.7,0.03,1.29-0.52,1.31-1.23c0-0.01,0-0.03,0-0.04
				c-0.03-0.72-0.61-1.29-1.34-1.28c-0.7-0.03-1.29,0.52-1.31,1.23C348.21,142.28,348.21,142.29,348.21,142.31z"/>
			<path class="st7" d="M348.23,138.65c0.15,0.19,1.2-0.51,2.63-0.4c1.43,0.1,2.43,0.87,2.6,0.7s-0.07-0.39-0.51-0.75
				c-0.59-0.47-1.31-0.75-2.06-0.79c-0.74-0.04-1.48,0.14-2.11,0.54C348.32,138.24,348.15,138.55,348.23,138.65z"/>
			<path class="st7" d="M343.52,150.65c-0.76-0.2-1.55-0.31-2.34-0.31c-0.37,0-0.72-0.08-0.79-0.33c-0.05-0.37,0.01-0.76,0.19-1.1
				c0.29-0.93,0.61-1.86,0.93-2.83c1.32-4.04,2.26-7.34,2.1-7.43c-0.16-0.08-1.36,3.18-2.68,7.21c-0.31,1-0.62,1.94-0.93,2.85
				c-0.2,0.45-0.25,0.96-0.13,1.45c0.12,0.25,0.35,0.44,0.63,0.51c0.2,0.04,0.42,0.07,0.62,0.07
				C341.92,150.8,342.72,150.78,343.52,150.65z"/>
			<path class="st7" d="M347.75,132.46c0.16,0.39,1.58,0.14,3.26,0.26c1.68,0.12,3.07,0.53,3.27,0.17c0.1-0.17-0.16-0.53-0.72-0.89
				c-1.52-0.87-3.36-0.99-4.98-0.31C348.02,131.95,347.68,132.27,347.75,132.46z"/>
			<path class="st7" d="M334.19,136.85c0.27,0.31,1.24-0.07,2.42-0.14c1.18-0.07,2.2,0.12,2.42-0.23c0.1-0.17-0.08-0.48-0.54-0.77
				c-0.6-0.36-1.29-0.51-1.99-0.44c-0.69,0.04-1.36,0.31-1.9,0.75C334.19,136.35,334.07,136.71,334.19,136.85z"/>
			<path class="st11" d="M363.59,144c0.16-0.07,6.3-2.18,6.39,4.2c0.08,6.37-6.32,5.15-6.33,4.96
				C363.61,152.98,363.59,144,363.59,144z"/>
			<path class="st12" d="M365.54,150.72c0,0,0.12,0.07,0.29,0.16c0.27,0.12,0.57,0.12,0.83,0c0.82-0.55,1.29-1.5,1.23-2.49
				c0.01-0.55-0.11-1.09-0.34-1.59c-0.12-0.4-0.44-0.72-0.84-0.83c-0.27-0.07-0.53,0.06-0.65,0.31c-0.08,0.19,0,0.31-0.07,0.33
				c-0.07,0.02-0.14-0.12-0.1-0.37c0.04-0.16,0.12-0.3,0.25-0.41c0.18-0.13,0.4-0.19,0.61-0.17c0.53,0.1,0.97,0.47,1.17,0.98
				c0.28,0.55,0.42,1.16,0.41,1.78c0.08,1.16-0.54,2.26-1.59,2.78c-0.34,0.11-0.72,0.04-1.01-0.16
				C365.56,150.88,365.52,150.72,365.54,150.72z"/>
			<path class="st7" d="M331.58,152.82c0.89-0.66,2.13-0.48,2.79,0.4c0.08,0.12,0.16,0.23,0.21,0.36c0.72-1.17,2.24-1.54,3.41-0.83
				c0.48,0.29,0.84,0.74,1.04,1.25c0.35-1.07,1.5-1.64,2.56-1.3c0.29,0.1,0.55,0.26,0.77,0.46c0.33-0.59,0.99-0.93,1.67-0.82
				c-0.16-0.85,0.4-1.69,1.25-1.85c0.42-0.08,0.85,0.01,1.2,0.27c0.67-1.26,2.23-1.73,3.48-1.07c0.08,0.04,0.15,0.08,0.22,0.13
				c0.12-0.77,0.85-1.31,1.63-1.18c0.57,0.09,1.02,0.51,1.16,1.07c0.58-0.84,1.63-1.2,2.6-0.89c-0.03-0.85,0.65-1.56,1.5-1.58
				c0.12-0.01,0.24,0.01,0.35,0.04c-0.28-0.77,0.84-1.22,1.39-1.86c0.24-0.27,0.39-0.63,0.65-0.87c0.26-0.24,0.76-0.34,0.97,0
				c-0.19-0.65,0.12-1.33,0.72-1.62c0.63-0.25,1.34,0,1.67,0.58c0.15,0.36,0.25,0.72,0.29,1.1c0.27,1.2,1.05,2.6,0.24,3.52
				c-0.15,0.17-0.34,0.31-0.39,0.52c-0.1,0.36,0.28,0.67,0.34,1.04s-0.31,0.79-0.45,1.19c-0.1,0.62-0.04,1.26,0.17,1.86
				c0.1,0.63-0.21,1.46-0.85,1.46c0.51,0.93,0.31,2.1-0.51,2.78c0.54,1.08,0.1,2.39-0.97,2.92c-0.03,0.01-0.05,0.03-0.08,0.04
				c0.42,0.37,0.5,1,0.19,1.46c-0.31,0.44-0.74,0.81-1.23,1.04c0.44,0.26,0.59,0.83,0.34,1.27c-0.01,0.01-0.01,0.02-0.01,0.03
				c-0.28,0.42-0.7,0.72-1.19,0.85c-0.21,0.04-0.4,0.16-0.54,0.34c-0.2,0.36,0.14,0.78,0.1,1.18c0,0.61-0.93,0.84-1.1,1.43
				c-0.18,0.59,0.16,1.19-0.21,1.59c-0.37,0.4-0.65,0.25-0.97,0.39c-0.58,0.26-0.8,0.93-1.14,1.47c-0.74,0.93-1.78,1.59-2.94,1.86
				c-0.58,0.2-1.16,0.36-1.75,0.52c-1.17,0.31-2.35,0.55-3.54,0.78c-0.58,0.12-1.31,0.18-1.67-0.31c-0.74,0.89-2.05,1.01-2.93,0.28
				c-0.15-0.12-0.28-0.27-0.39-0.44c-1.1,0.25-2.24,0.12-3.25-0.37l-1.08-0.38c-1.08-0.38-2.29-0.93-2.68-1.96
				c-1.27-0.19-2.14-1.37-1.95-2.64c0.03-0.14,0.05-0.28,0.1-0.41c-0.48,0.18-0.93-0.27-1.08-0.76c-0.05-0.5-0.03-0.99,0.08-1.48
				c0.21-2.02-0.99-3.98-0.87-5.99c0.1-1.42,0.82-2.87,0.33-4.2c-0.13-0.27-0.22-0.54-0.26-0.83c0-0.28,0.24-0.61,0.53-0.55
				c-0.31-0.65-0.04-1.42,0.61-1.73c0.18-0.08,0.37-0.13,0.56-0.12"/>
			<path class="st2" d="M347.77,151.45c-0.23,0-0.17,1.55-1.44,2.71c-1.28,1.16-2.94,1.07-2.94,1.3c0,0.22,0.38,0.28,1.08,0.27
				c0.91-0.03,1.78-0.37,2.45-0.99c0.65-0.59,1.05-1.4,1.11-2.27C348.06,151.82,347.87,151.43,347.77,151.45z"/>
			<path class="st5" d="M357.63,161.71c0.59-2.18,0.47-4.49-0.35-6.6c0.21,0.28,0.36,0.59,0.45,0.93c0.29,0.75,0.46,1.55,0.51,2.37
				c0.04,0.81-0.04,1.62-0.24,2.42C357.93,161.13,357.8,161.42,357.63,161.71z"/>
			<path class="st5" d="M358.92,159.35c0,0,0.18-0.26,0.31-0.74c0.13-0.61,0.13-1.24,0-1.86c-0.22-1.49-0.72-2.63-0.65-2.66
				c0.5,0.8,0.81,1.7,0.93,2.63c0.13,0.66,0.1,1.34-0.1,1.98C359.21,159.17,358.94,159.37,358.92,159.35z"/>
			<path class="st5" d="M360.39,157.95c0.66-1.81,0.6-3.81-0.18-5.57c0.19,0.22,0.35,0.47,0.44,0.75c0.27,0.65,0.43,1.33,0.44,2.03
				c0.03,0.7-0.08,1.4-0.31,2.06C360.71,157.49,360.57,157.74,360.39,157.95z"/>
			<path class="st7" d="M334.6,127.06c-0.2-1.86,2.37-5.86,4.93-7.14c3.87-1.94,9.85-3.27,13.51-2.38
				c4.43,1.07,8.14,3.12,10.49,7.02c2.27,3.98,3.44,8.5,3.39,13.09c0.11,1.39-0.16,2.8-0.78,4.05c-0.85,1.48-2.58,2.46-2.43,4.47
				c0.08,0.73-0.14,1.46-0.6,2.02c-1.15,1.32-2.67,0.19-3.38-0.99c-1.53-2.52-1.85-5.57-2.06-8.53c-0.28-2.09-0.22-4.19,0.19-6.26
				c0.28-1.1,0.75-2.16,0.93-3.28c0.28-1.13,0.07-2.32-0.59-3.27c-0.18-0.19-0.35-0.36-0.55-0.52c-1.92-1.55-4.54-1.95-6.83-1.03
				c-3.64,1.45-9.87,3.64-11.56,2.44c-2.44-1.72-2.7-2.38-2.7-2.38L334.6,127.06z"/>
			<path class="st5" d="M336.06,169.74c-2.14-1.45-3.37-3.92-3.24-6.5c0.33,1.17,0.74,2.33,1.21,3.45
				C334.65,167.75,335.32,168.78,336.06,169.74z"/>
			<path class="st5" d="M340.73,172.59c-1.28-0.49-2.38-1.32-3.23-2.41c-0.95-0.98-1.62-2.2-1.94-3.52
				c0.14-0.05,0.87,1.58,2.29,3.21C339.29,171.51,340.8,172.47,340.73,172.59z"/>
			<path class="st5" d="M343.73,171.15c-1.82,0.21-3.59-0.66-4.52-2.23c0.12-0.1,0.93,0.75,2.15,1.34
				C342.58,170.86,343.74,171.01,343.73,171.15z"/>
			<path class="st5" d="M366.05,130.74c-1.09,0.92-2.43,1.49-3.85,1.63c-1.4,0.25-2.84,0.08-4.16-0.49c0-0.17,1.85,0.33,4.08,0
				C364.37,131.56,365.97,130.58,366.05,130.74z"/>
			<path class="st5" d="M366.81,134.32c-2.88,1.81-6.48,2.01-9.53,0.51c1.58,0.34,3.19,0.51,4.81,0.51
				C363.69,135.16,365.27,134.82,366.81,134.32z"/>
		</g>
	</g>
	<g id="freepik--Floor--inject-36">
		<path class="st7" d="M508.6,454.76c0,0.13-82.2,0.24-183.57,0.24s-183.59-0.12-183.59-0.24c0-0.13,82.18-0.24,183.59-0.24
			S508.6,454.63,508.6,454.76z"/>
	</g>
</g>
</svg>
