<svg xmlns="http://www.w3.org/2000/svg" width="128" height="128" viewBox="0 0 128 128">
  <title>HEART</title>
  <path d="M64.634,31.685l-.049.049c-.39-.448-.792-.889-1.219-1.316A25.989,25.989,0,0,0,26.612,67.172c.427.427.868.829,1.316,1.219l-.049.049,36.755,36.754L101.388,68.44A25.989,25.989,0,0,0,64.634,31.685Z" fill="#f76363"/>
  <path d="M25.374,68.408A27.739,27.739,0,0,1,64.6,29.181l.07.071a27.738,27.738,0,0,1,37.951,40.425l-9.391,9.39a1.749,1.749,0,0,1-2.474-2.474l9.39-9.391A24.239,24.239,0,1,0,65.871,32.923a1.832,1.832,0,0,1-1.32.535,1.774,1.774,0,0,1-1.283-.573c-.366-.418-.741-.831-1.139-1.23A24.239,24.239,0,1,0,27.85,65.935c.4.4.81.773,1.228,1.138a1.758,1.758,0,0,1,.381.471L64.634,102.72,76.093,91.26a1.75,1.75,0,0,1,2.475,2.474l-12.7,12.7a1.752,1.752,0,0,1-2.475,0L26.642,69.677a1.772,1.772,0,0,1-.238-.3C26.054,69.066,25.71,68.745,25.374,68.408ZM85.4,86.9l1.583-1.584a1.75,1.75,0,0,0-2.476-2.474l-1.583,1.584A1.75,1.75,0,0,0,85.4,86.9Z" fill="#13134c"/>
</svg>
